<?xml version="1.0" encoding="UTF-8" standalone="no"?>
<!-- Created with Inkscape (http://www.inkscape.org/) -->

<svg
   xmlns:ns0="http://www.iki.fi/pav/software/textext/"
   xmlns:dc="http://purl.org/dc/elements/1.1/"
   xmlns:cc="http://creativecommons.org/ns#"
   xmlns:rdf="http://www.w3.org/1999/02/22-rdf-syntax-ns#"
   xmlns:svg="http://www.w3.org/2000/svg"
   xmlns="http://www.w3.org/2000/svg"
   xmlns:sodipodi="http://sodipodi.sourceforge.net/DTD/sodipodi-0.dtd"
   xmlns:inkscape="http://www.inkscape.org/namespaces/inkscape"
   width="210mm"
   height="297mm"
   viewBox="0 0 744.09448819 1052.3622047"
   id="svg2"
   version="1.1"
   inkscape:version="0.91 r13725"
   sodipodi:docname="source_compression_scheme.svg">
  <sodipodi:namedview
     id="base"
     pagecolor="#ffffff"
     bordercolor="#666666"
     borderopacity="1.0"
     inkscape:pageopacity="0.0"
     inkscape:pageshadow="2"
     inkscape:zoom="1.4"
     inkscape:cx="314.20862"
     inkscape:cy="763.19558"
     inkscape:document-units="px"
     inkscape:current-layer="layer1"
     showgrid="true"
     inkscape:window-width="1855"
     inkscape:window-height="1056"
     inkscape:window-x="65"
     inkscape:window-y="24"
     inkscape:window-maximized="1">
    <inkscape:grid
       type="xygrid"
       id="grid4136" />
  </sodipodi:namedview>
  <defs
     id="defs4">
    <marker
       inkscape:isstock="true"
       style="overflow:visible;"
       id="Arrow1Mend"
       refX="0.0"
       refY="0.0"
       orient="auto"
       inkscape:stockid="Arrow1Mend">
      <path
         transform="scale(0.4) rotate(180) translate(10,0)"
         style="fill-rule:evenodd;stroke:#000000;stroke-width:1pt;stroke-opacity:1;fill:#000000;fill-opacity:1"
         d="M 0.0,0.0 L 5.0,-5.0 L -12.5,0.0 L 5.0,5.0 L 0.0,0.0 z "
         id="path4185" />
    </marker>
    <marker
       inkscape:isstock="true"
       style="overflow:visible;"
       id="marker6607"
       refX="0.0"
       refY="0.0"
       orient="auto"
       inkscape:stockid="Arrow1Lend">
      <path
         transform="scale(0.8) rotate(180) translate(12.5,0)"
         style="fill-rule:evenodd;stroke:#000000;stroke-width:1pt;stroke-opacity:1;fill:#000000;fill-opacity:1"
         d="M 0.0,0.0 L 5.0,-5.0 L -12.5,0.0 L 5.0,5.0 L 0.0,0.0 z "
         id="path6609" />
    </marker>
    <marker
       inkscape:isstock="true"
       style="overflow:visible"
       id="marker6577"
       refX="0"
       refY="0"
       orient="auto"
       inkscape:stockid="Arrow1Lend">
      <path
         transform="matrix(-0.8,0,0,-0.8,-10,0)"
         style="fill:#000000;fill-opacity:1;fill-rule:evenodd;stroke:#000000;stroke-width:1pt;stroke-opacity:1"
         d="M 0,0 5,-5 -12.5,0 5,5 0,0 Z"
         id="path6579"
         inkscape:connector-curvature="0" />
    </marker>
    <marker
       inkscape:collect="always"
       inkscape:stockid="Arrow1Lend"
       orient="auto"
       refY="0.0"
       refX="0.0"
       id="Arrow1Lend"
       style="overflow:visible;"
       inkscape:isstock="true">
      <path
         id="path4179"
         d="M 0.0,0.0 L 5.0,-5.0 L -12.5,0.0 L 5.0,5.0 L 0.0,0.0 z "
         style="fill-rule:evenodd;stroke:#000000;stroke-width:1pt;stroke-opacity:1;fill:#000000;fill-opacity:1"
         transform="scale(0.8) rotate(180) translate(12.5,0)" />
    </marker>
    <marker
       inkscape:stockid="Arrow1Lend"
       orient="auto"
       refY="0"
       refX="0"
       id="Arrow1Lend-7"
       style="overflow:visible"
       inkscape:isstock="true">
      <path
         inkscape:connector-curvature="0"
         id="path4179-5"
         d="M 0,0 5,-5 -12.5,0 5,5 0,0 Z"
         style="fill:#000000;fill-opacity:1;fill-rule:evenodd;stroke:#000000;stroke-width:1pt;stroke-opacity:1"
         transform="matrix(-0.8,0,0,-0.8,-10,0)" />
    </marker>
    <marker
       inkscape:collect="always"
       inkscape:stockid="Arrow1Lend"
       orient="auto"
       refY="0"
       refX="0"
       id="Arrow1Lend-7-5"
       style="overflow:visible"
       inkscape:isstock="true">
      <path
         inkscape:connector-curvature="0"
         id="path4179-5-6"
         d="M 0,0 5,-5 -12.5,0 5,5 0,0 Z"
         style="fill:#000000;fill-opacity:1;fill-rule:evenodd;stroke:#000000;stroke-width:1pt;stroke-opacity:1"
         transform="matrix(-0.8,0,0,-0.8,-10,0)" />
    </marker>
    <marker
       inkscape:isstock="true"
       style="overflow:visible"
       id="Arrow1Mend-7"
       refX="0"
       refY="0"
       orient="auto"
       inkscape:stockid="Arrow1Mend">
      <path
         transform="matrix(-0.4,0,0,-0.4,-4,0)"
         style="fill:#000000;fill-opacity:1;fill-rule:evenodd;stroke:#000000;stroke-width:1pt;stroke-opacity:1"
         d="M 0,0 5,-5 -12.5,0 5,5 0,0 Z"
         id="path4185-0"
         inkscape:connector-curvature="0" />
    </marker>
    <marker
       inkscape:isstock="true"
       style="overflow:visible"
       id="Arrow1Mend-3"
       refX="0"
       refY="0"
       orient="auto"
       inkscape:stockid="Arrow1Mend">
      <path
         transform="matrix(-0.4,0,0,-0.4,-4,0)"
         style="fill:#000000;fill-opacity:1;fill-rule:evenodd;stroke:#000000;stroke-width:1pt;stroke-opacity:1"
         d="M 0,0 5,-5 -12.5,0 5,5 0,0 Z"
         id="path4185-6"
         inkscape:connector-curvature="0" />
    </marker>
  </defs>
  <metadata
     id="metadata7">
    <rdf:RDF>
      <cc:Work
         rdf:about="">
        <dc:format>image/svg+xml</dc:format>
        <dc:type
           rdf:resource="http://purl.org/dc/dcmitype/StillImage" />
        <dc:title></dc:title>
      </cc:Work>
    </rdf:RDF>
  </metadata>
  <g
     inkscape:label="Ebene 1"
     inkscape:groupmode="layer"
     id="layer1">
    <rect
       style="opacity:1;fill:none;fill-opacity:1;stroke:#000000;stroke-width:1;stroke-miterlimit:4;stroke-dasharray:none;stroke-dashoffset:0;stroke-opacity:1"
       id="rect4138"
       width="80"
       height="40"
       x="70"
       y="92.362206" />
    <path
       style="fill:none;fill-rule:evenodd;stroke:#000000;stroke-width:1px;stroke-linecap:butt;stroke-linejoin:miter;stroke-opacity:1;marker-end:url(#Arrow1Lend)"
       d="m 160,112.3622 80,0"
       id="path4170"
       inkscape:connector-type="polyline"
       inkscape:connector-curvature="0" />
    <path
       style="fill:none;fill-rule:evenodd;stroke:#000000;stroke-width:1px;stroke-linecap:butt;stroke-linejoin:miter;stroke-opacity:1;marker-end:url(#Arrow1Lend-7)"
       d="m 360,112.3622 80,0"
       id="path4170-3"
       inkscape:connector-type="polyline"
       inkscape:connector-curvature="0" />
    <path
       style="fill:none;fill-rule:evenodd;stroke:#000000;stroke-width:1.09978139px;stroke-linecap:butt;stroke-linejoin:miter;stroke-opacity:1;marker-end:url(#Arrow1Lend-7-5)"
       d="m 562,113.07649 96.76153,0"
       id="path4170-3-2"
       inkscape:connector-type="polyline"
       inkscape:connector-curvature="0" />
    <text
       xml:space="preserve"
       style="font-style:normal;font-weight:normal;font-size:20px;line-height:23.00000042%;font-family:sans-serif;letter-spacing:0px;word-spacing:0px;fill:#000000;fill-opacity:1;stroke:none;stroke-width:1px;stroke-linecap:butt;stroke-linejoin:miter;stroke-opacity:1"
       x="73.429817"
       y="119.7347"
       id="text5608"
       sodipodi:linespacing="23%"><tspan
         sodipodi:role="line"
         id="tspan5610"
         x="73.429817"
         y="119.7347">Source</tspan></text>
    <text
       xml:space="preserve"
       style="font-style:normal;font-weight:normal;font-size:20px;line-height:23.00000042%;font-family:sans-serif;letter-spacing:0px;word-spacing:0px;fill:#000000;fill-opacity:1;stroke:none;stroke-width:1px;stroke-linecap:butt;stroke-linejoin:miter;stroke-opacity:1"
       x="254.14412"
       y="119.44897"
       id="text5612"
       sodipodi:linespacing="23%"><tspan
         sodipodi:role="line"
         id="tspan5614"
         x="254.14412"
         y="119.44897">Encoding</tspan></text>
    <text
       xml:space="preserve"
       style="font-style:normal;font-weight:normal;font-size:20px;line-height:23.00000042%;font-family:sans-serif;letter-spacing:0px;word-spacing:0px;fill:#000000;fill-opacity:1;stroke:none;stroke-width:1px;stroke-linecap:butt;stroke-linejoin:miter;stroke-opacity:1"
       x="452.1441"
       y="117.7347"
       id="text5616"
       sodipodi:linespacing="23%"><tspan
         sodipodi:role="line"
         id="tspan5618"
         x="452.1441"
         y="117.7347">Decoding</tspan></text>
    <g
       style="font-style:normal;font-variant:normal;font-weight:normal;font-stretch:normal;letter-spacing:normal;word-spacing:normal;text-anchor:start;fill:none;fill-opacity:1;fill-rule:evenodd;stroke:#000000;stroke-linecap:butt;stroke-linejoin:miter;stroke-miterlimit:10.43299961;stroke-dasharray:none;stroke-dashoffset:0;stroke-opacity:1"
       id="content"
       transform="matrix(1.3,0,0,-1.3,-33.453571,811.41808)"
       xml:space="preserve"
       stroke-miterlimit="10.433"
       font-style="normal"
       font-variant="normal"
       font-weight="normal"
       font-stretch="normal"
       font-size-adjust="none"
       letter-spacing="normal"
       word-spacing="normal"
       ns0:text="$\\cE_n \\in \\cC(\\cH^{\\otimes n}, \\cK_n)$"
       ns0:preamble="/home/gisbert/Dokumente/promotion/2016_07_06_talk/inkscape_preamble.tex"><path
         style="fill:#000000;stroke-width:0"
         inkscape:connector-curvature="0"
         d="m 229.06,483.58 0,0.03 0,0.02 0,0.03 -0.01,0.02 0,0.03 -0.01,0.02 0,0.02 -0.01,0.03 -0.01,0.02 -0.01,0.02 0,0.02 -0.01,0.02 -0.03,0.04 -0.02,0.03 -0.03,0.04 -0.03,0.03 -0.03,0.02 -0.04,0.03 -0.03,0.03 -0.04,0.02 -0.04,0.02 -0.04,0.02 -0.05,0.01 -0.04,0.02 -0.05,0.01 -0.04,0.02 -0.05,0.01 -0.05,0.01 -0.05,0.01 -0.04,0 -0.05,0.01 -0.05,0 -0.05,0.01 -0.04,0 -0.05,0 -0.05,0 -0.04,0.01 -0.04,0 c -1.35,0 -3.05,-1.07 -3.05,-2.3 0,-0.54 0.37,-0.91 0.93,-1.11 -1.95,-1.03 -2.1,-2.33 -2.1,-2.6 0,-0.77 0.75,-1.24 1.69,-1.24 1.66,0 2.99,1.57 2.99,1.79 l -0.1,0.07 c -0.75,-0.61 -1.39,-1.31 -2.24,-1.31 -0.75,0 -1.49,0.4 -1.49,1.12 0,0.47 0.55,1.96 2.13,2.02 0.2,0.01 0.57,0.07 0.71,0.15 l 0.01,0.3 c -1.57,0.08 -1.69,0.98 -1.69,1.24 0,0.23 0.15,1.32 1.55,1.32 0.19,0 0.94,-0.03 0.94,-0.55 0,-0.23 -0.17,-0.38 -0.17,-0.47 l 0.12,-0.1 c 0.29,0 0.9,0.41 0.9,0.99 z"
         id="path5789" /><path
         style="fill:#000000;stroke-width:0"
         inkscape:connector-curvature="0"
         d="m 232.79,475.83 -0.08,0.14 c -0.12,-0.09 -0.51,-0.35 -0.61,-0.35 -0.1,0 -0.06,0.25 -0.04,0.31 0.17,0.75 0.37,1.47 0.51,2.22 0.08,0.47 -0.08,0.56 -0.22,0.56 -0.19,0 -0.5,-0.17 -0.81,-0.4 -0.45,-0.32 -0.91,-0.73 -1.23,-1.18 0.09,0.37 0.25,1.11 0.25,1.11 0.07,0.29 0.03,0.47 -0.13,0.47 -0.23,0 -0.97,-0.54 -1.17,-0.75 l 0.06,-0.15 c 0.09,0.09 0.5,0.37 0.59,0.37 0.16,0 0,-0.75 -0.21,-1.68 -0.11,-0.48 -0.22,-0.92 -0.33,-1.35 l 0.59,0.13 c 0.14,0.65 0.28,1.35 0.48,1.68 0.32,0.53 1.05,1.25 1.41,1.25 0.25,0 0.1,-0.53 0.06,-0.66 l -0.46,-1.99 c -0.07,-0.29 0.01,-0.44 0.18,-0.44 0.15,0 0.6,0.25 1.16,0.71 z"
         id="path5791" /><path
         style="fill:#000000;stroke-width:0"
         inkscape:connector-curvature="0"
         d="m 240.85,477.11 0,0.5 -1.93,0 c -0.94,0 -1.89,0.79 -2.02,1.86 l 3.95,0 0,0.51 -3.95,0 c 0.12,1.03 0.96,1.87 2.02,1.87 l 1.93,0 0,0.49 -1.88,0 c -1.46,0 -2.58,-1.21 -2.58,-2.61 0,-1.39 1.12,-2.62 2.58,-2.62 z"
         id="path5793" /><path
         style="fill:#000000;stroke-width:0"
         inkscape:connector-curvature="0"
         d="m 248.99,483.63 0,0.02 0,0.03 0,0.04 0,0.04 -0.01,0.04 -0.01,0.04 -0.01,0.04 -0.01,0.03 -0.02,0.03 -0.02,0.03 -0.01,0.03 -0.02,0.03 -0.03,0.02 -0.02,0.02 -0.02,0.02 -0.03,0.02 -0.03,0.02 -0.02,0.02 -0.03,0.02 -0.03,0.01 -0.04,0.01 -0.03,0.01 -0.03,0.01 -0.04,0.01 -0.04,0.01 -0.03,0.01 -0.04,0 -0.04,0.01 -0.04,0 -0.04,0 -0.04,0 -0.04,0.01 -0.04,0 c -1.1,0 -2.26,-0.59 -3.04,-1.47 -0.97,-1.08 -1.35,-2.56 -1.35,-3.53 0,-1.48 0.75,-2.27 1.9,-2.27 1.6,0 2.93,1.56 2.93,1.81 l -0.2,0.17 c -0.61,-0.68 -1.38,-1.42 -2.07,-1.43 -0.95,-0.01 -1.71,0.71 -1.71,2.14 0,0.7 0.23,1.92 0.95,2.95 0.49,0.71 1.07,1.08 1.93,1.08 0.37,0 0.63,-0.12 0.63,-0.51 0,-0.44 -0.55,-1.28 -0.55,-1.4 l 0.11,-0.17 c 0.77,0.2 1.28,1.52 1.28,2 z"
         id="path5795" /><path
         style="fill:#000000;stroke-width:0"
         inkscape:connector-curvature="0"
         d="m 252.36,474.78 -0.08,0.13 -0.09,0.13 -0.08,0.14 -0.08,0.14 -0.07,0.14 -0.07,0.15 -0.14,0.29 -0.13,0.31 -0.11,0.31 -0.11,0.32 -0.09,0.32 -0.08,0.33 -0.07,0.33 -0.06,0.33 -0.05,0.33 -0.04,0.33 -0.03,0.32 -0.01,0.32 -0.01,0.31 c 0,1.67 0.46,3.51 1.4,4.88 -1.46,-1.16 -2.14,-3.01 -2.14,-4.88 0,-1.89 0.68,-3.78 2.14,-4.98 z"
         id="path5797" /><path
         style="fill:#000000;stroke-width:0"
         inkscape:connector-curvature="0"
         d="m 261.04,483.96 -0.11,0.08 c 0.01,0 -0.58,-0.27 -0.58,-0.27 -0.24,-0.19 -0.89,-1.73 -1.18,-2.52 l -2.65,0 c -0.08,0 -0.29,0 -0.45,-0.1 0.13,0.48 0.22,0.9 0.27,1.22 0.09,0.5 0.13,1.02 0.13,1.1 0,0.28 -0.15,0.57 -0.67,0.57 -1.09,0 -2.3,-0.56 -2.51,-1.71 0.01,0 0.2,-0.13 0.2,-0.13 0.51,0.79 0.71,1.29 1.65,1.29 0.42,0 0.48,-0.33 0.48,-0.44 0,-0.57 -0.33,-2.68 -1.48,-5.67 -0.1,-0.27 -0.1,-0.29 -0.1,-0.3 0,0 0.07,-0.07 0.11,-0.07 0.22,0 0.65,0.27 0.73,0.44 0.13,0.29 0.56,1.55 0.7,2 l 0.38,1.25 2.6,0 c 0.08,0 0.29,0 0.45,0.1 -0.52,-1.54 -0.59,-2.34 -0.59,-2.97 0,-0.55 0,-1.07 0.65,-1.07 0.8,0 1.8,0.7 1.8,1.13 l -0.2,0.18 c -0.23,-0.48 -0.67,-0.76 -0.94,-0.76 -0.46,0 -0.46,0.5 -0.46,0.95 0,1.97 1.19,4.58 1.7,5.56 0.07,0.1 0.07,0.12 0.07,0.14 z"
         id="path5799" /><path
         style="fill:#000000;stroke-width:0"
         inkscape:connector-curvature="0"
         d="m 266.27,482.76 -0.01,0.12 -0.01,0.12 -0.01,0.12 -0.02,0.12 -0.03,0.11 -0.03,0.12 -0.04,0.11 -0.04,0.1 -0.05,0.11 -0.05,0.1 -0.06,0.1 -0.07,0.1 -0.06,0.1 -0.07,0.09 -0.08,0.08 -0.08,0.09 -0.08,0.08 -0.09,0.07 -0.09,0.07 -0.09,0.07 -0.1,0.06 -0.1,0.06 -0.11,0.05 -0.1,0.05 -0.11,0.04 -0.11,0.04 -0.12,0.03 -0.11,0.03 -0.12,0.02 -0.12,0.02 -0.12,0 -0.12,0.01 0,-0.36 c 0.49,0 0.94,-0.17 1.3,-0.47 l 0,0 -1.3,-1.31 0.25,-0.25 1.31,1.31 c 0.29,-0.35 0.47,-0.82 0.47,-1.31 l 0,0 c 0,-0.5 -0.18,-0.97 -0.47,-1.31 l -1.31,1.31 -0.25,0.25 -1.31,1.31 c 0.34,0.3 0.81,0.47 1.31,0.47 l 0,0.36 c -1.33,0 -2.4,-1.08 -2.4,-2.39 l 0.35,0 c 0,0.49 0.18,0.96 0.48,1.31 l 1.31,-1.31 -1.31,-1.31 c -0.3,0.34 -0.48,0.81 -0.48,1.31 l -0.35,0 c 0,-1.33 1.07,-2.4 2.4,-2.4 l 0,0.35 c -0.5,0 -0.97,0.18 -1.31,0.48 l 1.31,1.31 1.3,-1.31 c -0.36,-0.3 -0.81,-0.48 -1.3,-0.48 l 0,-0.35 c 1.31,0 2.4,1.07 2.4,2.4 z"
         id="path5801" /><path
         style="fill:#000000;stroke-width:0"
         inkscape:connector-curvature="0"
         d="m 270.36,481.49 -0.08,0.15 c -0.12,-0.1 -0.51,-0.35 -0.62,-0.35 -0.09,0 -0.05,0.25 -0.03,0.31 0.17,0.74 0.37,1.47 0.5,2.22 0.09,0.47 -0.07,0.55 -0.21,0.55 -0.2,0 -0.51,-0.17 -0.82,-0.39 -0.44,-0.33 -0.9,-0.74 -1.22,-1.19 0.09,0.37 0.25,1.12 0.25,1.12 0.07,0.28 0.03,0.46 -0.13,0.46 -0.23,0 -0.97,-0.54 -1.18,-0.74 l 0.07,-0.15 c 0.09,0.08 0.49,0.36 0.59,0.36 0.16,0 0,-0.74 -0.22,-1.67 -0.1,-0.49 -0.21,-0.93 -0.32,-1.35 l 0.59,0.13 c 0.14,0.65 0.28,1.34 0.48,1.68 0.32,0.53 1.05,1.25 1.41,1.25 0.25,0 0.09,-0.54 0.06,-0.66 l -0.46,-2 c -0.07,-0.29 0.01,-0.44 0.17,-0.44 0.16,0 0.61,0.25 1.17,0.71 z"
         id="path5803" /><path
         style="fill:#000000;stroke-width:0"
         inkscape:connector-curvature="0"
         d="m 272.99,477.89 0.01,0.02 0,0.01 0,0.02 0.01,0.02 0,0.01 0,0.02 0,0.03 0,0.04 -0.01,0.03 0,0.03 -0.01,0.03 -0.01,0.02 -0.01,0.03 -0.01,0.03 -0.01,0.02 -0.01,0.03 -0.02,0.02 -0.01,0.03 -0.02,0.02 -0.02,0.02 -0.02,0.02 -0.02,0.02 -0.02,0.01 -0.02,0.02 -0.02,0.01 -0.02,0.02 -0.02,0.01 -0.02,0.01 -0.02,0.01 -0.02,0.01 -0.02,0.01 -0.02,0 -0.02,0 -0.02,0.01 -0.01,0 c -0.33,0 -0.7,-0.19 -0.76,-0.52 -0.06,-0.32 0.28,-0.44 0.14,-0.96 -0.1,-0.38 -0.35,-0.69 -0.74,-0.97 l 0.07,-0.16 c 0.7,0.22 1.53,1.28 1.7,1.97 z"
         id="path5805" /><path
         style="fill:#000000;stroke-width:0"
         inkscape:connector-curvature="0"
         d="m 282.05,483.66 0,0.03 0,0.03 -0.01,0.04 0,0.03 -0.01,0.03 0,0.03 -0.01,0.03 -0.01,0.02 -0.01,0.03 -0.01,0.03 -0.02,0.02 -0.01,0.02 -0.02,0.03 -0.01,0.02 -0.02,0.02 -0.02,0.02 -0.02,0.02 -0.02,0.02 -0.02,0.02 -0.02,0.01 -0.03,0.02 -0.02,0.01 -0.03,0.01 -0.02,0.01 -0.03,0.01 -0.03,0.01 -0.03,0.01 -0.03,0.01 -0.03,0 -0.03,0 -0.03,0.01 -0.04,0 c -0.66,0 -2.06,-0.81 -2.79,-1.33 -0.47,-0.34 -1.52,-1.1 -1.52,-1.71 0,-0.62 0.53,-1.92 1.03,-2.78 0.7,-1.17 1.15,-1.43 1.57,-1.43 1.28,0 1.99,0.83 2.24,1.49 0,0 -0.08,0.12 -0.12,0.09 -0.46,-0.41 -0.59,-1.15 -1.77,-1.15 -0.92,0 -2.35,3.1 -2.35,4.03 0,0.41 0.8,0.99 1.08,1.19 1.03,0.74 1.97,1.17 2.27,1.17 0.24,0 0.35,-0.23 0.35,-0.42 0,-0.07 -0.02,-0.13 -0.02,-0.16 z"
         id="path5807" /><path
         style="fill:#000000;stroke-width:0"
         inkscape:connector-curvature="0"
         d="m 277.56,484.1 0,0.01 0,0.01 0,0.01 0,0.01 0,0.01 0,0.01 0,0 0,0.01 -0.01,0.01 0,0.01 0,0 0,0.01 0,0.01 0,0 0,0.01 -0.01,0 0,0.01 0,0 -0.01,0 0,0.01 0,0 -0.01,0 0,0.01 -0.01,0 -0.01,0 0,0 0,0 -0.01,0 0,0 0,0 -0.01,0 0,0 0,0 -0.01,0.01 0,0 -0.01,0 0,0 -0.01,0 0,0 c -0.13,0 -1.45,-0.58 -1.45,-0.85 l 0.11,-0.06 c 0.22,0.18 0.23,0.21 0.59,0.24 -0.11,-2.11 -0.96,-4.62 -1.53,-6.15 -0.04,-0.12 -0.12,-0.34 -0.12,-0.36 0,0 0.07,-0.07 0.11,-0.07 l 0.67,0.38 c 0.1,0.1 1.73,4.43 1.73,6.71 z"
         id="path5809" /><path
         style="fill:#000000;stroke-width:0"
         inkscape:connector-curvature="0"
         d="m 286.36,475.83 -0.08,0.14 c -0.12,-0.09 -0.51,-0.35 -0.61,-0.35 -0.1,0 -0.06,0.25 -0.04,0.31 0.17,0.75 0.37,1.47 0.51,2.22 0.08,0.47 -0.08,0.56 -0.21,0.56 -0.2,0 -0.51,-0.17 -0.82,-0.4 -0.45,-0.32 -0.91,-0.73 -1.23,-1.18 0.09,0.37 0.25,1.11 0.25,1.11 0.07,0.29 0.03,0.47 -0.13,0.47 -0.22,0 -0.97,-0.54 -1.17,-0.75 l 0.07,-0.15 c 0.08,0.09 0.49,0.37 0.58,0.37 0.17,0 0,-0.75 -0.21,-1.68 -0.11,-0.48 -0.21,-0.92 -0.33,-1.35 l 0.59,0.13 c 0.14,0.65 0.28,1.35 0.48,1.68 0.33,0.53 1.05,1.25 1.42,1.25 0.25,0 0.09,-0.53 0.06,-0.66 l -0.47,-1.99 c -0.06,-0.29 0.01,-0.44 0.18,-0.44 0.15,0 0.6,0.25 1.16,0.71 z"
         id="path5811" /><path
         style="fill:#000000;stroke-width:0"
         inkscape:connector-curvature="0"
         d="m 289.79,479.75 -0.01,0.35 -0.01,0.18 -0.02,0.17 -0.01,0.18 -0.03,0.17 -0.02,0.17 -0.03,0.17 -0.04,0.17 -0.03,0.17 -0.05,0.17 -0.04,0.16 -0.05,0.17 -0.06,0.16 -0.06,0.16 -0.06,0.16 -0.07,0.16 -0.07,0.15 -0.08,0.15 -0.08,0.15 -0.09,0.15 -0.09,0.14 -0.09,0.14 -0.1,0.14 -0.1,0.14 -0.11,0.13 -0.11,0.13 -0.12,0.13 -0.12,0.12 -0.13,0.12 -0.13,0.11 -0.14,0.12 c 1.01,-1.37 1.41,-3.29 1.41,-4.88 0,-1.61 -0.39,-3.48 -1.41,-4.98 1.48,1.21 2.15,3.07 2.15,4.97 z"
         id="path5813" /></g>    <rect
       style="opacity:1;fill:none;fill-opacity:1;stroke:#000000;stroke-width:1.11576843;stroke-miterlimit:4;stroke-dasharray:none;stroke-dashoffset:0;stroke-opacity:1"
       id="rect4138-9"
       width="99.884232"
       height="39.884232"
       x="250.05789"
       y="93.134369" />
    <rect
       style="opacity:1;fill:none;fill-opacity:1;stroke:#000000;stroke-width:1.11576843;stroke-miterlimit:4;stroke-dasharray:none;stroke-dashoffset:0;stroke-opacity:1"
       id="rect4138-9-1"
       width="99.884232"
       height="39.884232"
       x="450.91504"
       y="93.134369" />
    <g
       ns0:preamble="/home/gisbert/Dokumente/promotion/2016_07_06_talk/inkscape_preamble.tex"
       ns0:text="$\\cD_n \\in \\cC(\\cK_n, \\cH_n)$"
       word-spacing="normal"
       letter-spacing="normal"
       font-size-adjust="none"
       font-stretch="normal"
       font-weight="normal"
       font-variant="normal"
       font-style="normal"
       stroke-miterlimit="10.433"
       xml:space="preserve"
       transform="matrix(1.3,0,0,-1.3,171.26114,811.77015)"
       id="g6369"
       style="font-style:normal;font-variant:normal;font-weight:normal;font-stretch:normal;letter-spacing:normal;word-spacing:normal;text-anchor:start;fill:none;fill-opacity:1;fill-rule:evenodd;stroke:#000000;stroke-linecap:butt;stroke-linejoin:miter;stroke-miterlimit:10.43299961;stroke-dasharray:none;stroke-dashoffset:0;stroke-opacity:1"><path
         id="path6371"
         d="m 231.06,481.73 0,0.08 0,0.09 -0.01,0.08 -0.01,0.08 -0.01,0.07 -0.01,0.08 -0.02,0.07 -0.01,0.08 -0.02,0.06 -0.03,0.07 -0.02,0.07 -0.03,0.06 -0.02,0.06 -0.03,0.06 -0.04,0.06 -0.03,0.06 -0.03,0.06 -0.04,0.05 -0.04,0.05 -0.04,0.05 -0.04,0.05 -0.04,0.04 -0.04,0.05 -0.05,0.04 -0.04,0.04 -0.05,0.04 -0.04,0.04 -0.05,0.04 -0.05,0.03 -0.05,0.04 -0.05,0.03 -0.05,0.03 c -0.84,0.5 -1.71,0.5 -2.63,0.5 -0.83,0 -1.55,0 -2.39,-0.41 -0.45,-0.22 -1.22,-0.7 -1.42,-1.5 0.01,0 0.13,-0.11 0.13,-0.11 0.69,0.94 1.05,1.4 2.42,1.47 -0.17,-2.11 -0.66,-3.92 -1.36,-5.73 -0.23,-0.08 -0.38,-0.15 -0.59,-0.28 l -0.02,-0.18 c 0,0 0.01,-0.07 0.21,-0.07 l 1.07,0 0.02,0.55 c 0.87,2.17 1.23,3.52 1.49,5.71 l 0.26,0 c 1.37,0 2.96,-0.51 2.96,-2.19 l 0,0 c 0,-1.98 -1.81,-3.52 -4.15,-3.52 l -0.56,0 -0.02,-0.55 c 2.24,0 5.57,1.74 5.57,4.5 z"
         inkscape:connector-curvature="0"
         style="fill:#000000;stroke-width:0" /><path
         id="path6373"
         d="m 235.08,475.83 -0.08,0.14 c -0.12,-0.09 -0.51,-0.35 -0.62,-0.35 -0.09,0 -0.05,0.25 -0.03,0.31 0.17,0.75 0.37,1.47 0.5,2.22 0.09,0.47 -0.07,0.56 -0.21,0.56 -0.2,0 -0.51,-0.17 -0.82,-0.4 -0.44,-0.32 -0.91,-0.73 -1.22,-1.18 0.09,0.37 0.25,1.11 0.25,1.11 0.06,0.29 0.03,0.47 -0.13,0.47 -0.23,0 -0.97,-0.54 -1.18,-0.75 l 0.07,-0.15 c 0.09,0.09 0.49,0.37 0.59,0.37 0.16,0 0,-0.75 -0.22,-1.68 -0.1,-0.48 -0.21,-0.92 -0.32,-1.35 l 0.59,0.13 c 0.13,0.65 0.28,1.35 0.48,1.68 0.32,0.53 1.05,1.25 1.41,1.25 0.25,0 0.09,-0.53 0.06,-0.66 l -0.46,-1.99 c -0.07,-0.29 0.01,-0.44 0.17,-0.44 0.16,0 0.61,0.25 1.17,0.71 z"
         inkscape:connector-curvature="0"
         style="fill:#000000;stroke-width:0" /><path
         id="path6375"
         d="m 243.13,477.11 0,0.5 -1.92,0 c -0.95,0 -1.89,0.79 -2.02,1.86 l 3.94,0 0,0.51 -3.94,0 c 0.12,1.03 0.96,1.87 2.02,1.87 l 1.92,0 0,0.49 -1.87,0 c -1.46,0 -2.58,-1.21 -2.58,-2.61 0,-1.39 1.12,-2.62 2.58,-2.62 z"
         inkscape:connector-curvature="0"
         style="fill:#000000;stroke-width:0" /><path
         id="path6377"
         d="m 251.28,483.63 0,0.02 0,0.03 0,0.04 -0.01,0.04 0,0.04 -0.01,0.04 -0.01,0.04 -0.02,0.03 -0.01,0.03 -0.02,0.03 -0.02,0.03 -0.02,0.03 -0.02,0.02 -0.02,0.02 -0.02,0.02 -0.03,0.02 -0.03,0.02 -0.03,0.02 -0.03,0.02 -0.03,0.01 -0.03,0.01 -0.03,0.01 -0.04,0.01 -0.03,0.01 -0.04,0.01 -0.03,0.01 -0.04,0 -0.04,0.01 -0.04,0 -0.04,0 -0.04,0 -0.04,0.01 -0.04,0 c -1.1,0 -2.27,-0.59 -3.04,-1.47 -0.97,-1.08 -1.35,-2.56 -1.35,-3.53 0,-1.48 0.75,-2.27 1.9,-2.27 1.6,0 2.92,1.56 2.92,1.81 l -0.19,0.17 c -0.61,-0.68 -1.38,-1.42 -2.08,-1.43 -0.94,-0.01 -1.7,0.71 -1.7,2.14 0,0.7 0.23,1.92 0.95,2.95 0.48,0.71 1.07,1.08 1.93,1.08 0.37,0 0.63,-0.12 0.63,-0.51 0,-0.44 -0.55,-1.28 -0.55,-1.4 l 0.11,-0.17 c 0.76,0.2 1.28,1.52 1.28,2 z"
         inkscape:connector-curvature="0"
         style="fill:#000000;stroke-width:0" /><path
         id="path6379"
         d="m 254.65,474.78 -0.08,0.13 -0.09,0.13 -0.08,0.14 -0.08,0.14 -0.07,0.14 -0.08,0.15 -0.13,0.29 -0.13,0.31 -0.11,0.31 -0.11,0.32 -0.09,0.32 -0.08,0.33 -0.08,0.33 -0.06,0.33 -0.05,0.33 -0.03,0.33 -0.03,0.32 -0.02,0.32 0,0.31 c 0,1.67 0.46,3.51 1.4,4.88 -1.46,-1.16 -2.14,-3.01 -2.14,-4.88 0,-1.89 0.68,-3.78 2.14,-4.98 z"
         inkscape:connector-curvature="0"
         style="fill:#000000;stroke-width:0" /><path
         id="path6381"
         d="m 262.48,483.66 0,0.03 0,0.03 0,0.04 -0.01,0.03 0,0.03 -0.01,0.03 -0.01,0.03 -0.01,0.02 -0.01,0.03 -0.01,0.03 -0.01,0.02 -0.02,0.02 -0.01,0.03 -0.02,0.02 -0.02,0.02 -0.02,0.02 -0.02,0.02 -0.02,0.02 -0.02,0.02 -0.02,0.01 -0.03,0.02 -0.02,0.01 -0.03,0.01 -0.02,0.01 -0.03,0.01 -0.03,0.01 -0.03,0.01 -0.03,0.01 -0.03,0 -0.03,0 -0.03,0.01 -0.04,0 c -0.66,0 -2.06,-0.81 -2.78,-1.33 -0.48,-0.34 -1.53,-1.1 -1.53,-1.71 0,-0.62 0.53,-1.92 1.04,-2.78 0.7,-1.17 1.14,-1.43 1.56,-1.43 1.29,0 1.99,0.83 2.24,1.49 0,0 -0.08,0.12 -0.12,0.09 -0.45,-0.41 -0.59,-1.15 -1.77,-1.15 -0.92,0 -2.35,3.1 -2.35,4.03 0,0.41 0.81,0.99 1.09,1.19 1.02,0.74 1.97,1.17 2.27,1.17 0.23,0 0.35,-0.23 0.35,-0.42 0,-0.07 -0.03,-0.13 -0.03,-0.16 z"
         inkscape:connector-curvature="0"
         style="fill:#000000;stroke-width:0" /><path
         id="path6383"
         d="m 257.99,484.1 0,0.01 0,0.01 0,0.01 0,0.01 0,0.01 0,0.01 0,0 0,0.01 0,0.01 0,0.01 -0.01,0 0,0.01 0,0.01 0,0 0,0.01 0,0 -0.01,0.01 0,0 0,0 -0.01,0.01 0,0 -0.01,0 0,0.01 -0.01,0 0,0 -0.01,0 0,0 0,0 -0.01,0 0,0 0,0 -0.01,0 0,0 -0.01,0.01 0,0 -0.01,0 0,0 0,0 -0.01,0 c -0.13,0 -1.45,-0.58 -1.45,-0.85 l 0.12,-0.06 c 0.21,0.18 0.22,0.21 0.58,0.24 -0.11,-2.11 -0.95,-4.62 -1.53,-6.15 -0.04,-0.12 -0.12,-0.34 -0.12,-0.36 0,0 0.07,-0.07 0.11,-0.07 l 0.68,0.38 c 0.1,0.1 1.72,4.43 1.72,6.71 z"
         inkscape:connector-curvature="0"
         style="fill:#000000;stroke-width:0" /><path
         id="path6385"
         d="m 266.8,475.83 -0.09,0.14 c -0.12,-0.09 -0.5,-0.35 -0.61,-0.35 -0.1,0 -0.05,0.25 -0.04,0.31 0.18,0.75 0.37,1.47 0.51,2.22 0.08,0.47 -0.08,0.56 -0.21,0.56 -0.2,0 -0.51,-0.17 -0.82,-0.4 -0.45,-0.32 -0.91,-0.73 -1.23,-1.18 0.09,0.37 0.25,1.11 0.25,1.11 0.07,0.29 0.03,0.47 -0.13,0.47 -0.22,0 -0.96,-0.54 -1.17,-0.75 l 0.07,-0.15 c 0.08,0.09 0.49,0.37 0.58,0.37 0.17,0 0,-0.75 -0.21,-1.68 -0.1,-0.48 -0.21,-0.92 -0.32,-1.35 l 0.59,0.13 c 0.13,0.65 0.28,1.35 0.47,1.68 0.33,0.53 1.05,1.25 1.42,1.25 0.25,0 0.09,-0.53 0.06,-0.66 l -0.46,-1.99 c -0.07,-0.29 0,-0.44 0.17,-0.44 0.15,0 0.61,0.25 1.17,0.71 z"
         inkscape:connector-curvature="0"
         style="fill:#000000;stroke-width:0" /><path
         id="path6387"
         d="m 269.43,477.89 0,0.02 0.01,0.01 0,0.02 0,0.02 0.01,0.03 0,0.03 -0.01,0.04 0,0.03 0,0.03 -0.01,0.03 -0.01,0.02 -0.01,0.03 -0.01,0.03 -0.01,0.02 -0.02,0.03 -0.01,0.02 -0.02,0.03 -0.01,0.02 -0.02,0.02 -0.02,0.02 -0.02,0.02 -0.02,0.01 -0.02,0.02 -0.02,0.01 -0.02,0.02 -0.02,0.01 -0.02,0.01 -0.02,0.01 -0.02,0.01 -0.02,0.01 -0.02,0 -0.02,0 -0.02,0.01 -0.02,0 c -0.33,0 -0.69,-0.19 -0.75,-0.52 -0.06,-0.32 0.27,-0.44 0.13,-0.96 -0.09,-0.38 -0.34,-0.69 -0.73,-0.97 l 0.07,-0.16 c 0.69,0.22 1.53,1.28 1.7,1.97 z"
         inkscape:connector-curvature="0"
         style="fill:#000000;stroke-width:0" /><path
         id="path6389"
         d="m 279.33,483.96 -0.1,0.08 c 0,0 -0.58,-0.27 -0.58,-0.27 -0.24,-0.19 -0.9,-1.73 -1.19,-2.52 l -2.65,0 c -0.08,0 -0.29,0 -0.45,-0.1 0.13,0.48 0.22,0.9 0.27,1.22 0.09,0.5 0.13,1.02 0.13,1.1 0,0.28 -0.15,0.57 -0.67,0.57 -1.09,0 -2.3,-0.56 -2.51,-1.71 0.01,0 0.2,-0.13 0.2,-0.13 0.51,0.79 0.71,1.29 1.66,1.29 0.42,0 0.48,-0.33 0.48,-0.44 0,-0.57 -0.33,-2.68 -1.49,-5.67 -0.1,-0.27 -0.1,-0.29 -0.1,-0.3 0,0 0.07,-0.07 0.11,-0.07 0.22,0 0.66,0.27 0.73,0.44 0.13,0.29 0.56,1.55 0.71,2 l 0.37,1.25 2.6,0 c 0.08,0 0.29,0 0.45,0.1 -0.52,-1.54 -0.59,-2.34 -0.59,-2.97 0,-0.55 0,-1.07 0.65,-1.07 0.8,0 1.81,0.7 1.81,1.13 l -0.2,0.18 c -0.23,-0.48 -0.68,-0.76 -0.95,-0.76 -0.46,0 -0.46,0.5 -0.46,0.95 0,1.97 1.2,4.58 1.71,5.56 0.06,0.1 0.06,0.12 0.06,0.14 z"
         inkscape:connector-curvature="0"
         style="fill:#000000;stroke-width:0" /><path
         id="path6391"
         d="m 283.59,475.83 -0.08,0.14 c -0.12,-0.09 -0.51,-0.35 -0.62,-0.35 -0.09,0 -0.05,0.25 -0.03,0.31 0.17,0.75 0.37,1.47 0.5,2.22 0.09,0.47 -0.07,0.56 -0.21,0.56 -0.2,0 -0.51,-0.17 -0.82,-0.4 -0.44,-0.32 -0.91,-0.73 -1.22,-1.18 0.09,0.37 0.25,1.11 0.25,1.11 0.06,0.29 0.03,0.47 -0.13,0.47 -0.23,0 -0.97,-0.54 -1.18,-0.75 l 0.07,-0.15 c 0.09,0.09 0.49,0.37 0.58,0.37 0.17,0 0,-0.75 -0.21,-1.68 -0.1,-0.48 -0.21,-0.92 -0.32,-1.35 l 0.59,0.13 c 0.13,0.65 0.28,1.35 0.47,1.68 0.33,0.53 1.06,1.25 1.42,1.25 0.25,0 0.09,-0.53 0.06,-0.66 l -0.46,-1.99 c -0.07,-0.29 0.01,-0.44 0.17,-0.44 0.16,0 0.61,0.25 1.17,0.71 z"
         inkscape:connector-curvature="0"
         style="fill:#000000;stroke-width:0" /><path
         id="path6393"
         d="m 287.01,479.75 -0.01,0.35 -0.01,0.18 -0.01,0.17 -0.02,0.18 -0.02,0.17 -0.03,0.17 -0.03,0.17 -0.03,0.17 -0.04,0.17 -0.04,0.17 -0.05,0.16 -0.05,0.17 -0.05,0.16 -0.06,0.16 -0.07,0.16 -0.07,0.16 -0.07,0.15 -0.07,0.15 -0.09,0.15 -0.08,0.15 -0.09,0.14 -0.1,0.14 -0.1,0.14 -0.1,0.14 -0.11,0.13 -0.11,0.13 -0.12,0.13 -0.12,0.12 -0.12,0.12 -0.14,0.11 -0.13,0.12 c 1.01,-1.37 1.4,-3.29 1.4,-4.88 0,-1.61 -0.38,-3.48 -1.4,-4.98 1.47,1.21 2.14,3.07 2.14,4.97 z"
         inkscape:connector-curvature="0"
         style="fill:#000000;stroke-width:0" /></g>    <g
       style="font-style:normal;font-variant:normal;font-weight:normal;font-stretch:normal;letter-spacing:normal;word-spacing:normal;text-anchor:start;fill:none;fill-opacity:1;fill-rule:evenodd;stroke:#000000;stroke-linecap:butt;stroke-linejoin:miter;stroke-miterlimit:10.43299961;stroke-dasharray:none;stroke-dashoffset:0;stroke-opacity:1"
       id="g6495"
       transform="matrix(1,0,0,-1,-133.57143,667.85714)"
       xml:space="preserve"
       stroke-miterlimit="10.433"
       font-style="normal"
       font-variant="normal"
       font-weight="normal"
       font-stretch="normal"
       font-size-adjust="none"
       letter-spacing="normal"
       word-spacing="normal"
       ns0:text="$\\rho \\in \\cS(\\cH)$"
       ns0:preamble="/home/gisbert/Dokumente/promotion/2016_07_06_talk/inkscape_preamble.tex"><path
         style="fill:#000000;stroke-width:0"
         inkscape:connector-curvature="0"
         d="m 228.57,480.4 0,0.09 0,0.08 -0.01,0.08 -0.01,0.08 -0.02,0.07 -0.01,0.08 -0.02,0.07 -0.03,0.06 -0.02,0.07 -0.03,0.06 -0.03,0.07 -0.04,0.05 -0.04,0.06 -0.04,0.05 -0.04,0.05 -0.05,0.05 -0.05,0.05 -0.05,0.04 -0.05,0.04 -0.06,0.04 -0.06,0.03 -0.06,0.03 -0.07,0.03 -0.06,0.03 -0.07,0.02 -0.08,0.02 -0.07,0.02 -0.08,0.01 -0.08,0.01 -0.08,0.01 -0.08,0 -0.09,0.01 c -1.18,0 -2.45,-0.87 -2.77,-2.02 -0.49,-1.76 -0.42,-3.71 -0.15,-5.48 l 0.83,0.27 c -0.23,1.18 -0.33,1.92 -0.19,2.88 0.25,-0.33 0.6,-0.43 1,-0.43 l 0.12,0.26 c -0.75,0 -0.93,0.59 -0.93,1.24 0,1.02 0.38,2.96 1.71,2.96 0.77,0 0.99,-0.59 0.99,-1.27 l 0,0 c 0,-1.06 -0.42,-2.93 -1.77,-2.93 l -0.12,-0.26 c 1.73,0 2.76,1.79 2.76,3.32 z"
         id="path6497" /><path
         style="fill:#000000;stroke-width:0"
         inkscape:connector-curvature="0"
         d="m 236.34,477.11 0,0.5 -1.92,0 c -0.95,0 -1.9,0.79 -2.03,1.86 l 3.95,0 0,0.51 -3.95,0 c 0.12,1.03 0.96,1.87 2.03,1.87 l 1.92,0 0,0.49 -1.87,0 c -1.47,0 -2.59,-1.21 -2.59,-2.61 0,-1.39 1.12,-2.62 2.59,-2.62 z"
         id="path6499" /><path
         style="fill:#000000;stroke-width:0"
         inkscape:connector-curvature="0"
         d="m 245.56,483.19 0,0.05 0,0.04 0,0.04 -0.01,0.04 -0.01,0.04 0,0.04 -0.01,0.04 -0.01,0.03 -0.01,0.04 -0.02,0.03 -0.01,0.03 -0.01,0.03 -0.02,0.03 -0.02,0.03 -0.02,0.03 -0.01,0.03 -0.02,0.02 -0.02,0.03 -0.02,0.02 -0.03,0.02 -0.02,0.03 -0.02,0.02 -0.03,0.02 -0.02,0.02 -0.03,0.01 -0.02,0.02 -0.03,0.02 -0.02,0.01 -0.03,0.02 -0.03,0.01 -0.03,0.01 -0.02,0.02 c -0.47,0.21 -0.88,0.2 -1.04,0.2 -1.3,0 -2.9,-0.98 -2.9,-2.14 0,-0.78 0.76,-1.18 1.31,-1.43 0.71,-0.32 1.65,-0.78 1.65,-1.62 0,-0.62 -0.45,-1.51 -2,-1.51 -1.05,0 -1.84,0.69 -1.84,1.34 0,0.27 0.25,0.72 0.69,0.92 l -0.12,0.17 c -0.34,0 -1.41,-0.53 -1.41,-1.52 0,-0.72 0.8,-1.46 2.02,-1.46 1.62,0 3.51,1.12 3.51,2.48 0,0.69 -0.49,1.17 -1.59,1.67 -0.54,0.24 -1.37,0.61 -1.37,1.39 0,0.32 0.17,0.67 0.38,0.86 0.34,0.3 0.96,0.3 1.01,0.3 0.1,0 0.55,-0.02 0.95,-0.2 0.2,-0.09 0.46,-0.21 0.46,-0.64 0,-0.14 0.04,-0.47 0.04,-0.47 z"
         id="path6501" /><path
         style="fill:#000000;stroke-width:0"
         inkscape:connector-curvature="0"
         d="m 248.93,474.78 -0.09,0.13 -0.08,0.13 -0.08,0.14 -0.08,0.14 -0.08,0.14 -0.07,0.15 -0.14,0.29 -0.12,0.31 -0.12,0.31 -0.1,0.32 -0.09,0.32 -0.09,0.33 -0.07,0.33 -0.06,0.33 -0.05,0.33 -0.04,0.33 -0.02,0.32 -0.02,0.32 -0.01,0.31 c 0,1.67 0.46,3.51 1.41,4.88 -1.47,-1.16 -2.14,-3.01 -2.14,-4.88 0,-1.89 0.67,-3.78 2.14,-4.98 z"
         id="path6503" /><path
         style="fill:#000000;stroke-width:0"
         inkscape:connector-curvature="0"
         d="m 257.61,483.96 -0.11,0.08 c 0.01,0 -0.58,-0.27 -0.58,-0.27 -0.24,-0.19 -0.9,-1.73 -1.19,-2.52 l -2.65,0 c -0.08,0 -0.29,0 -0.44,-0.1 0.12,0.48 0.21,0.9 0.26,1.22 0.09,0.5 0.13,1.02 0.13,1.1 0,0.28 -0.15,0.57 -0.66,0.57 -1.1,0 -2.3,-0.56 -2.51,-1.71 0.01,0 0.19,-0.13 0.19,-0.13 0.51,0.79 0.71,1.29 1.66,1.29 0.42,0 0.48,-0.33 0.48,-0.44 0,-0.57 -0.33,-2.68 -1.49,-5.67 -0.1,-0.27 -0.1,-0.29 -0.1,-0.3 0,0 0.07,-0.07 0.11,-0.07 0.22,0 0.66,0.27 0.73,0.44 0.13,0.29 0.57,1.55 0.71,2 l 0.38,1.25 2.6,0 c 0.08,0 0.28,0 0.44,0.1 -0.51,-1.54 -0.58,-2.34 -0.58,-2.97 0,-0.55 0,-1.07 0.64,-1.07 0.8,0 1.81,0.7 1.81,1.13 l -0.2,0.18 c -0.23,-0.48 -0.68,-0.76 -0.95,-0.76 -0.46,0 -0.46,0.5 -0.46,0.95 0,1.97 1.2,4.58 1.71,5.56 0.07,0.1 0.07,0.12 0.07,0.14 z"
         id="path6505" /><path
         style="fill:#000000;stroke-width:0"
         inkscape:connector-curvature="0"
         d="m 260.48,479.75 -0.01,0.35 -0.01,0.18 -0.02,0.17 -0.01,0.18 -0.03,0.17 -0.02,0.17 -0.03,0.17 -0.04,0.17 -0.03,0.17 -0.05,0.17 -0.04,0.16 -0.05,0.17 -0.06,0.16 -0.06,0.16 -0.06,0.16 -0.07,0.16 -0.07,0.15 -0.08,0.15 -0.08,0.15 -0.09,0.15 -0.09,0.14 -0.09,0.14 -0.1,0.14 -0.1,0.14 -0.11,0.13 -0.11,0.13 -0.12,0.13 -0.12,0.12 -0.13,0.12 -0.13,0.11 -0.14,0.12 c 1.01,-1.37 1.41,-3.29 1.41,-4.88 0,-1.61 -0.39,-3.48 -1.41,-4.98 1.48,1.21 2.15,3.07 2.15,4.97 z"
         id="path6507" /></g>    <path
       inkscape:connector-curvature="0"
       inkscape:connector-type="polyline"
       id="path6569"
       d="m 110.71428,169.50503 0,-27.29587"
       style="fill:none;fill-rule:evenodd;stroke:#000000;stroke-width:0.73886228px;stroke-linecap:butt;stroke-linejoin:miter;stroke-opacity:1;marker-end:url(#Arrow1Mend)" />
    <path
       inkscape:connector-curvature="0"
       inkscape:connector-type="polyline"
       id="path6569-9"
       d="m 300.71428,170.9336 0,-27.29587"
       style="fill:none;fill-rule:evenodd;stroke:#000000;stroke-width:0.73886228px;stroke-linecap:butt;stroke-linejoin:miter;stroke-opacity:1;marker-end:url(#Arrow1Mend-7)" />
    <path
       inkscape:connector-curvature="0"
       inkscape:connector-type="polyline"
       id="path6569-0"
       d="m 500.71428,170.9336 0,-27.29587"
       style="fill:none;fill-rule:evenodd;stroke:#000000;stroke-width:0.73886228px;stroke-linecap:butt;stroke-linejoin:miter;stroke-opacity:1;marker-end:url(#Arrow1Mend-3)" />
    <g
       ns0:preamble="/home/gisbert/Dokumente/promotion/2016_07_06_talk/inkscape_preamble.tex"
       ns0:text="$\\rho^{\\otimes n} \\in \\cS(\\cH^{\\otimes n})$"
       word-spacing="normal"
       letter-spacing="normal"
       font-size-adjust="none"
       font-stretch="normal"
       font-weight="normal"
       font-variant="normal"
       font-style="normal"
       stroke-miterlimit="10.433"
       xml:space="preserve"
       transform="matrix(1,0,0,-1,-52.857143,579.28571)"
       id="g8309"
       style="font-style:normal;font-variant:normal;font-weight:normal;font-stretch:normal;letter-spacing:normal;word-spacing:normal;text-anchor:start;fill:none;fill-opacity:1;fill-rule:evenodd;stroke:#000000;stroke-linecap:butt;stroke-linejoin:miter;stroke-miterlimit:10.43299961;stroke-dasharray:none;stroke-dashoffset:0;stroke-opacity:1"><path
         id="path8311"
         d="m 228.57,480.4 0,0.09 0,0.08 -0.01,0.08 -0.01,0.08 -0.02,0.07 -0.01,0.08 -0.02,0.07 -0.03,0.06 -0.02,0.07 -0.03,0.06 -0.03,0.07 -0.04,0.05 -0.04,0.06 -0.04,0.05 -0.04,0.05 -0.05,0.05 -0.05,0.05 -0.05,0.04 -0.05,0.04 -0.06,0.04 -0.06,0.03 -0.06,0.03 -0.07,0.03 -0.06,0.03 -0.07,0.02 -0.08,0.02 -0.07,0.02 -0.08,0.01 -0.08,0.01 -0.08,0.01 -0.08,0 -0.09,0.01 c -1.18,0 -2.45,-0.87 -2.77,-2.02 -0.49,-1.76 -0.42,-3.71 -0.15,-5.48 l 0.83,0.27 c -0.23,1.18 -0.33,1.92 -0.19,2.88 0.25,-0.33 0.6,-0.43 1,-0.43 l 0.12,0.26 c -0.75,0 -0.93,0.59 -0.93,1.24 0,1.02 0.38,2.96 1.71,2.96 0.77,0 0.99,-0.59 0.99,-1.27 l 0,0 c 0,-1.06 -0.42,-2.93 -1.77,-2.93 l -0.12,-0.26 c 1.73,0 2.76,1.79 2.76,3.32 z"
         inkscape:connector-curvature="0"
         style="fill:#000000;stroke-width:0" /><path
         id="path8313"
         d="m 234.05,482.76 0,0.12 -0.01,0.12 -0.01,0.12 -0.03,0.12 -0.02,0.11 -0.03,0.12 -0.04,0.11 -0.05,0.1 -0.04,0.11 -0.06,0.1 -0.06,0.1 -0.06,0.1 -0.07,0.1 -0.07,0.09 -0.07,0.08 -0.08,0.09 -0.09,0.08 -0.08,0.07 -0.09,0.07 -0.1,0.07 -0.1,0.06 -0.1,0.06 -0.1,0.05 -0.11,0.05 -0.1,0.04 -0.12,0.04 -0.11,0.03 -0.11,0.03 -0.12,0.02 -0.12,0.02 -0.12,0 -0.13,0.01 0,-0.36 c 0.5,0 0.95,-0.17 1.31,-0.47 l 0,0 -1.31,-1.31 0.25,-0.25 1.31,1.31 c 0.3,-0.35 0.48,-0.82 0.48,-1.31 l 0,0 c 0,-0.5 -0.18,-0.97 -0.48,-1.31 l -1.31,1.31 -0.25,0.25 -1.31,1.31 c 0.35,0.3 0.81,0.47 1.31,0.47 l 0,0.36 c -1.32,0 -2.4,-1.08 -2.4,-2.39 l 0.36,0 c 0,0.49 0.18,0.96 0.48,1.31 l 1.31,-1.31 -1.31,-1.31 c -0.3,0.34 -0.48,0.81 -0.48,1.31 l -0.36,0 c 0,-1.33 1.08,-2.4 2.4,-2.4 l 0,0.35 c -0.5,0 -0.96,0.18 -1.31,0.48 l 1.31,1.31 1.31,-1.31 c -0.36,-0.3 -0.81,-0.48 -1.31,-0.48 l 0,-0.35 c 1.32,0 2.4,1.07 2.4,2.4 z"
         inkscape:connector-curvature="0"
         style="fill:#000000;stroke-width:0" /><path
         id="path8315"
         d="m 238.15,481.49 -0.08,0.15 c -0.12,-0.1 -0.51,-0.35 -0.61,-0.35 -0.1,0 -0.06,0.25 -0.04,0.31 0.18,0.74 0.37,1.47 0.51,2.22 0.08,0.47 -0.08,0.55 -0.21,0.55 -0.2,0 -0.51,-0.17 -0.82,-0.39 -0.45,-0.33 -0.91,-0.74 -1.23,-1.19 0.09,0.37 0.25,1.12 0.25,1.12 0.07,0.28 0.03,0.46 -0.13,0.46 -0.22,0 -0.97,-0.54 -1.17,-0.74 l 0.07,-0.15 c 0.08,0.08 0.49,0.36 0.58,0.36 0.17,0 0,-0.74 -0.21,-1.67 -0.11,-0.49 -0.21,-0.93 -0.33,-1.35 l 0.59,0.13 c 0.14,0.65 0.28,1.34 0.48,1.68 0.33,0.53 1.05,1.25 1.42,1.25 0.25,0 0.09,-0.54 0.06,-0.66 l -0.46,-2 c -0.07,-0.29 0,-0.44 0.17,-0.44 0.15,0 0.61,0.25 1.16,0.71 z"
         inkscape:connector-curvature="0"
         style="fill:#000000;stroke-width:0" /><path
         id="path8317"
         d="m 246.21,477.11 0,0.5 -1.92,0 c -0.95,0 -1.9,0.79 -2.03,1.86 l 3.95,0 0,0.51 -3.95,0 c 0.12,1.03 0.96,1.87 2.03,1.87 l 1.92,0 0,0.49 -1.87,0 c -1.47,0 -2.58,-1.21 -2.58,-2.61 0,-1.39 1.11,-2.62 2.58,-2.62 z"
         inkscape:connector-curvature="0"
         style="fill:#000000;stroke-width:0" /><path
         id="path8319"
         d="m 255.43,483.19 0,0.05 0,0.04 0,0.04 -0.01,0.04 -0.01,0.04 0,0.04 -0.01,0.04 -0.01,0.03 -0.01,0.04 -0.02,0.03 -0.01,0.03 -0.01,0.03 -0.02,0.03 -0.02,0.03 -0.02,0.03 -0.01,0.03 -0.02,0.02 -0.02,0.03 -0.02,0.02 -0.03,0.02 -0.02,0.03 -0.02,0.02 -0.03,0.02 -0.02,0.02 -0.03,0.01 -0.02,0.02 -0.03,0.02 -0.02,0.01 -0.03,0.02 -0.03,0.01 -0.03,0.01 -0.02,0.02 c -0.47,0.21 -0.88,0.2 -1.04,0.2 -1.3,0 -2.9,-0.98 -2.9,-2.14 0,-0.78 0.76,-1.18 1.32,-1.43 0.7,-0.32 1.64,-0.78 1.64,-1.62 0,-0.62 -0.45,-1.51 -2,-1.51 -1.05,0 -1.84,0.69 -1.84,1.34 0,0.27 0.25,0.72 0.69,0.92 l -0.12,0.17 c -0.34,0 -1.41,-0.53 -1.41,-1.52 0,-0.72 0.8,-1.46 2.02,-1.46 1.62,0 3.51,1.12 3.51,2.48 0,0.69 -0.49,1.17 -1.59,1.67 -0.54,0.24 -1.37,0.61 -1.37,1.39 0,0.32 0.17,0.67 0.38,0.86 0.34,0.3 0.96,0.3 1.01,0.3 0.1,0 0.55,-0.02 0.95,-0.2 0.2,-0.09 0.46,-0.21 0.46,-0.64 0,-0.14 0.04,-0.47 0.04,-0.47 z"
         inkscape:connector-curvature="0"
         style="fill:#000000;stroke-width:0" /><path
         id="path8321"
         d="m 258.8,474.78 -0.09,0.13 -0.08,0.13 -0.08,0.14 -0.08,0.14 -0.08,0.14 -0.07,0.15 -0.14,0.29 -0.12,0.31 -0.12,0.31 -0.1,0.32 -0.09,0.32 -0.09,0.33 -0.07,0.33 -0.06,0.33 -0.05,0.33 -0.04,0.33 -0.02,0.32 -0.02,0.32 -0.01,0.31 c 0,1.67 0.46,3.51 1.41,4.88 -1.47,-1.16 -2.14,-3.01 -2.14,-4.88 0,-1.89 0.67,-3.78 2.14,-4.98 z"
         inkscape:connector-curvature="0"
         style="fill:#000000;stroke-width:0" /><path
         id="path8323"
         d="m 267.48,483.96 -0.11,0.08 c 0.01,0 -0.58,-0.27 -0.58,-0.27 -0.24,-0.19 -0.9,-1.73 -1.19,-2.52 l -2.65,0 c -0.08,0 -0.28,0 -0.44,-0.1 0.13,0.48 0.22,0.9 0.26,1.22 0.09,0.5 0.13,1.02 0.13,1.1 0,0.28 -0.14,0.57 -0.66,0.57 -1.1,0 -2.31,-0.56 -2.51,-1.71 0.01,0 0.19,-0.13 0.19,-0.13 0.51,0.79 0.71,1.29 1.66,1.29 0.42,0 0.48,-0.33 0.48,-0.44 0,-0.57 -0.33,-2.68 -1.49,-5.67 -0.1,-0.27 -0.1,-0.29 -0.1,-0.3 0,0 0.07,-0.07 0.11,-0.07 0.22,0 0.66,0.27 0.73,0.44 0.13,0.29 0.57,1.55 0.71,2 l 0.38,1.25 2.6,0 c 0.08,0 0.29,0 0.45,0.1 -0.52,-1.54 -0.59,-2.34 -0.59,-2.97 0,-0.55 0,-1.07 0.64,-1.07 0.8,0 1.81,0.7 1.81,1.13 l -0.2,0.18 c -0.23,-0.48 -0.68,-0.76 -0.95,-0.76 -0.46,0 -0.46,0.5 -0.46,0.95 0,1.97 1.2,4.58 1.71,5.56 0.07,0.1 0.07,0.12 0.07,0.14 z"
         inkscape:connector-curvature="0"
         style="fill:#000000;stroke-width:0" /><path
         id="path8325"
         d="m 272.71,482.76 0,0.12 -0.01,0.12 -0.02,0.12 -0.02,0.12 -0.03,0.11 -0.03,0.12 -0.04,0.11 -0.04,0.1 -0.05,0.11 -0.05,0.1 -0.06,0.1 -0.06,0.1 -0.07,0.1 -0.07,0.09 -0.08,0.08 -0.08,0.09 -0.08,0.08 -0.09,0.07 -0.09,0.07 -0.09,0.07 -0.1,0.06 -0.1,0.06 -0.1,0.05 -0.11,0.05 -0.11,0.04 -0.11,0.04 -0.11,0.03 -0.12,0.03 -0.12,0.02 -0.12,0.02 -0.12,0 -0.12,0.01 0,-0.36 c 0.49,0 0.95,-0.17 1.3,-0.47 l 0,0 -1.3,-1.31 0.25,-0.25 1.31,1.31 c 0.29,-0.35 0.48,-0.82 0.48,-1.31 l 0,0 c 0,-0.5 -0.19,-0.97 -0.48,-1.31 l -1.31,1.31 -0.25,0.25 -1.31,1.31 c 0.35,0.3 0.81,0.47 1.31,0.47 l 0,0.36 c -1.33,0 -2.4,-1.08 -2.4,-2.39 l 0.36,0 c 0,0.49 0.18,0.96 0.47,1.31 l 1.31,-1.31 -1.31,-1.31 c -0.29,0.34 -0.47,0.81 -0.47,1.31 l -0.36,0 c 0,-1.33 1.07,-2.4 2.4,-2.4 l 0,0.35 c -0.5,0 -0.96,0.18 -1.31,0.48 l 1.31,1.31 1.3,-1.31 c -0.35,-0.3 -0.81,-0.48 -1.3,-0.48 l 0,-0.35 c 1.32,0 2.4,1.07 2.4,2.4 z"
         inkscape:connector-curvature="0"
         style="fill:#000000;stroke-width:0" /><path
         id="path8327"
         d="m 276.8,481.49 -0.08,0.15 c -0.12,-0.1 -0.51,-0.35 -0.61,-0.35 -0.1,0 -0.06,0.25 -0.04,0.31 0.17,0.74 0.37,1.47 0.51,2.22 0.08,0.47 -0.08,0.55 -0.22,0.55 -0.19,0 -0.5,-0.17 -0.81,-0.39 -0.45,-0.33 -0.91,-0.74 -1.23,-1.19 0.09,0.37 0.25,1.12 0.25,1.12 0.07,0.28 0.03,0.46 -0.13,0.46 -0.23,0 -0.97,-0.54 -1.17,-0.74 l 0.06,-0.15 c 0.09,0.08 0.5,0.36 0.59,0.36 0.16,0 0,-0.74 -0.21,-1.67 -0.11,-0.49 -0.22,-0.93 -0.33,-1.35 l 0.59,0.13 c 0.14,0.65 0.28,1.34 0.48,1.68 0.32,0.53 1.05,1.25 1.41,1.25 0.25,0 0.09,-0.54 0.06,-0.66 l -0.46,-2 c -0.07,-0.29 0.01,-0.44 0.18,-0.44 0.15,0 0.6,0.25 1.16,0.71 z"
         inkscape:connector-curvature="0"
         style="fill:#000000;stroke-width:0" /><path
         id="path8329"
         d="m 280.22,479.75 0,0.35 -0.01,0.18 -0.02,0.17 -0.02,0.18 -0.02,0.17 -0.02,0.17 -0.03,0.17 -0.04,0.17 -0.04,0.17 -0.04,0.17 -0.05,0.16 -0.05,0.17 -0.05,0.16 -0.06,0.16 -0.07,0.16 -0.06,0.16 -0.08,0.15 -0.07,0.15 -0.08,0.15 -0.09,0.15 -0.09,0.14 -0.09,0.14 -0.1,0.14 -0.11,0.14 -0.1,0.13 -0.12,0.13 -0.11,0.13 -0.13,0.12 -0.12,0.12 -0.13,0.11 -0.14,0.12 c 1.01,-1.37 1.41,-3.29 1.41,-4.88 0,-1.61 -0.39,-3.48 -1.41,-4.98 1.47,1.21 2.14,3.07 2.14,4.97 z"
         inkscape:connector-curvature="0"
         style="fill:#000000;stroke-width:0" /></g>    <g
       style="font-style:normal;font-variant:normal;font-weight:normal;font-stretch:normal;letter-spacing:normal;word-spacing:normal;text-anchor:start;fill:none;fill-opacity:1;fill-rule:evenodd;stroke:#000000;stroke-linecap:butt;stroke-linejoin:miter;stroke-miterlimit:10.43299961;stroke-dasharray:none;stroke-dashoffset:0;stroke-opacity:1"
       id="g8493"
       transform="matrix(1,0,0,-1,140.71429,577.85714)"
       xml:space="preserve"
       stroke-miterlimit="10.433"
       font-style="normal"
       font-variant="normal"
       font-weight="normal"
       font-stretch="normal"
       font-size-adjust="none"
       letter-spacing="normal"
       word-spacing="normal"
       ns0:text="$\\cE_n(\\rho^{\\otimes n}) \\in \\cS(\\cK_n)$"
       ns0:preamble="/home/gisbert/Dokumente/promotion/2016_07_06_talk/inkscape_preamble.tex"><path
         style="fill:#000000;stroke-width:0"
         inkscape:connector-curvature="0"
         d="m 229.06,483.58 0,0.03 0,0.02 0,0.03 -0.01,0.02 0,0.03 -0.01,0.02 0,0.02 -0.01,0.03 -0.01,0.02 -0.01,0.02 0,0.02 -0.01,0.02 -0.03,0.04 -0.02,0.03 -0.03,0.04 -0.03,0.03 -0.03,0.02 -0.04,0.03 -0.03,0.03 -0.04,0.02 -0.04,0.02 -0.04,0.02 -0.05,0.01 -0.04,0.02 -0.05,0.01 -0.04,0.02 -0.05,0.01 -0.05,0.01 -0.05,0.01 -0.04,0 -0.05,0.01 -0.05,0 -0.05,0.01 -0.04,0 -0.05,0 -0.05,0 -0.04,0.01 -0.04,0 c -1.35,0 -3.05,-1.07 -3.05,-2.3 0,-0.54 0.37,-0.91 0.93,-1.11 -1.95,-1.03 -2.1,-2.33 -2.1,-2.6 0,-0.77 0.75,-1.24 1.69,-1.24 1.66,0 2.99,1.57 2.99,1.79 l -0.1,0.07 c -0.75,-0.61 -1.39,-1.31 -2.24,-1.31 -0.75,0 -1.49,0.4 -1.49,1.12 0,0.47 0.55,1.96 2.13,2.02 0.2,0.01 0.57,0.07 0.71,0.15 l 0.01,0.3 c -1.57,0.08 -1.69,0.98 -1.69,1.24 0,0.23 0.15,1.32 1.55,1.32 0.19,0 0.94,-0.03 0.94,-0.55 0,-0.23 -0.17,-0.38 -0.17,-0.47 l 0.12,-0.1 c 0.29,0 0.9,0.41 0.9,0.99 z"
         id="path8495" /><path
         style="fill:#000000;stroke-width:0"
         inkscape:connector-curvature="0"
         d="m 232.79,475.83 -0.08,0.14 c -0.12,-0.09 -0.51,-0.35 -0.61,-0.35 -0.1,0 -0.06,0.25 -0.04,0.31 0.17,0.75 0.37,1.47 0.51,2.22 0.08,0.47 -0.08,0.56 -0.22,0.56 -0.19,0 -0.5,-0.17 -0.81,-0.4 -0.45,-0.32 -0.91,-0.73 -1.23,-1.18 0.09,0.37 0.25,1.11 0.25,1.11 0.07,0.29 0.03,0.47 -0.13,0.47 -0.23,0 -0.97,-0.54 -1.17,-0.75 l 0.06,-0.15 c 0.09,0.09 0.5,0.37 0.59,0.37 0.16,0 0,-0.75 -0.21,-1.68 -0.11,-0.48 -0.22,-0.92 -0.33,-1.35 l 0.59,0.13 c 0.14,0.65 0.28,1.35 0.48,1.68 0.32,0.53 1.05,1.25 1.41,1.25 0.25,0 0.1,-0.53 0.06,-0.66 l -0.46,-1.99 c -0.07,-0.29 0.01,-0.44 0.18,-0.44 0.15,0 0.6,0.25 1.16,0.71 z"
         id="path8497" /><path
         style="fill:#000000;stroke-width:0"
         inkscape:connector-curvature="0"
         d="m 236.49,474.78 -0.08,0.13 -0.09,0.13 -0.08,0.14 -0.08,0.14 -0.07,0.14 -0.07,0.15 -0.14,0.29 -0.13,0.31 -0.11,0.31 -0.11,0.32 -0.09,0.32 -0.08,0.33 -0.07,0.33 -0.06,0.33 -0.05,0.33 -0.04,0.33 -0.03,0.32 -0.01,0.32 -0.01,0.31 c 0,1.67 0.46,3.51 1.4,4.88 -1.46,-1.16 -2.14,-3.01 -2.14,-4.88 0,-1.89 0.68,-3.78 2.14,-4.98 z"
         id="path8499" /><path
         style="fill:#000000;stroke-width:0"
         inkscape:connector-curvature="0"
         d="m 242.16,480.4 0,0.09 0,0.08 -0.01,0.08 -0.01,0.08 -0.02,0.07 -0.01,0.08 -0.02,0.07 -0.03,0.06 -0.02,0.07 -0.03,0.06 -0.03,0.07 -0.04,0.05 -0.04,0.06 -0.04,0.05 -0.04,0.05 -0.05,0.05 -0.05,0.05 -0.05,0.04 -0.05,0.04 -0.06,0.04 -0.06,0.03 -0.06,0.03 -0.07,0.03 -0.06,0.03 -0.07,0.02 -0.08,0.02 -0.07,0.02 -0.08,0.01 -0.08,0.01 -0.08,0.01 -0.08,0 -0.09,0.01 c -1.18,0 -2.45,-0.87 -2.77,-2.02 -0.49,-1.76 -0.42,-3.71 -0.15,-5.48 l 0.83,0.27 c -0.23,1.18 -0.33,1.92 -0.19,2.88 0.25,-0.33 0.61,-0.43 1,-0.43 l 0.12,0.26 c -0.75,0 -0.93,0.59 -0.93,1.24 0,1.02 0.37,2.96 1.71,2.96 0.77,0 0.99,-0.59 0.99,-1.27 l 0,0 c 0,-1.06 -0.42,-2.93 -1.77,-2.93 l -0.12,-0.26 c 1.73,0 2.76,1.79 2.76,3.32 z"
         id="path8501" /><path
         style="fill:#000000;stroke-width:0"
         inkscape:connector-curvature="0"
         d="m 247.65,482.76 0,0.12 -0.01,0.12 -0.02,0.12 -0.02,0.12 -0.02,0.11 -0.04,0.12 -0.03,0.11 -0.05,0.1 -0.05,0.11 -0.05,0.1 -0.06,0.1 -0.06,0.1 -0.07,0.1 -0.07,0.09 -0.07,0.08 -0.08,0.09 -0.09,0.08 -0.08,0.07 -0.1,0.07 -0.09,0.07 -0.1,0.06 -0.1,0.06 -0.1,0.05 -0.11,0.05 -0.11,0.04 -0.11,0.04 -0.11,0.03 -0.12,0.03 -0.11,0.02 -0.12,0.02 -0.13,0 -0.12,0.01 0,-0.36 c 0.49,0 0.95,-0.17 1.3,-0.47 l 0,0 -1.3,-1.31 0.25,-0.25 1.31,1.31 c 0.3,-0.35 0.48,-0.82 0.48,-1.31 l 0,0 c 0,-0.5 -0.18,-0.97 -0.48,-1.31 l -1.31,1.31 -0.25,0.25 -1.31,1.31 c 0.35,0.3 0.81,0.47 1.31,0.47 l 0,0.36 c -1.32,0 -2.4,-1.08 -2.4,-2.39 l 0.36,0 c 0,0.49 0.18,0.96 0.47,1.31 l 1.31,-1.31 -1.31,-1.31 c -0.29,0.34 -0.47,0.81 -0.47,1.31 l -0.36,0 c 0,-1.33 1.08,-2.4 2.4,-2.4 l 0,0.35 c -0.5,0 -0.96,0.18 -1.31,0.48 l 1.31,1.31 1.3,-1.31 c -0.35,-0.3 -0.81,-0.48 -1.3,-0.48 l 0,-0.35 c 1.32,0 2.4,1.07 2.4,2.4 z"
         id="path8503" /><path
         style="fill:#000000;stroke-width:0"
         inkscape:connector-curvature="0"
         d="m 251.74,481.49 -0.08,0.15 c -0.12,-0.1 -0.51,-0.35 -0.61,-0.35 -0.1,0 -0.06,0.25 -0.04,0.31 0.17,0.74 0.37,1.47 0.51,2.22 0.08,0.47 -0.08,0.55 -0.21,0.55 -0.2,0 -0.51,-0.17 -0.82,-0.39 -0.45,-0.33 -0.91,-0.74 -1.23,-1.19 0.09,0.37 0.25,1.12 0.25,1.12 0.07,0.28 0.03,0.46 -0.13,0.46 -0.22,0 -0.97,-0.54 -1.17,-0.74 l 0.07,-0.15 c 0.08,0.08 0.49,0.36 0.58,0.36 0.17,0 0,-0.74 -0.21,-1.67 -0.11,-0.49 -0.21,-0.93 -0.33,-1.35 l 0.59,0.13 c 0.14,0.65 0.28,1.34 0.48,1.68 0.33,0.53 1.05,1.25 1.42,1.25 0.25,0 0.09,-0.54 0.06,-0.66 l -0.47,-2 c -0.06,-0.29 0.01,-0.44 0.18,-0.44 0.15,0 0.6,0.25 1.16,0.71 z"
         id="path8505" /><path
         style="fill:#000000;stroke-width:0"
         inkscape:connector-curvature="0"
         d="m 255.16,479.75 0,0.35 -0.01,0.18 -0.02,0.17 -0.01,0.18 -0.03,0.17 -0.02,0.17 -0.03,0.17 -0.04,0.17 -0.03,0.17 -0.05,0.17 -0.04,0.16 -0.05,0.17 -0.06,0.16 -0.06,0.16 -0.06,0.16 -0.07,0.16 -0.07,0.15 -0.08,0.15 -0.08,0.15 -0.09,0.15 -0.09,0.14 -0.09,0.14 -0.1,0.14 -0.1,0.14 -0.11,0.13 -0.11,0.13 -0.12,0.13 -0.12,0.12 -0.13,0.12 -0.13,0.11 -0.14,0.12 c 1.01,-1.37 1.41,-3.29 1.41,-4.88 0,-1.61 -0.39,-3.48 -1.41,-4.98 1.48,1.21 2.14,3.07 2.14,4.97 z"
         id="path8507" /><path
         style="fill:#000000;stroke-width:0"
         inkscape:connector-curvature="0"
         d="m 263.05,477.11 0,0.5 -1.93,0 c -0.94,0 -1.89,0.79 -2.02,1.86 l 3.95,0 0,0.51 -3.95,0 c 0.12,1.03 0.96,1.87 2.02,1.87 l 1.93,0 0,0.49 -1.88,0 c -1.46,0 -2.58,-1.21 -2.58,-2.61 0,-1.39 1.12,-2.62 2.58,-2.62 z"
         id="path8509" /><path
         style="fill:#000000;stroke-width:0"
         inkscape:connector-curvature="0"
         d="m 272.27,483.19 0,0.05 0,0.04 -0.01,0.04 0,0.04 -0.01,0.04 0,0.04 -0.01,0.04 -0.01,0.03 -0.02,0.04 -0.01,0.03 -0.01,0.03 -0.02,0.03 -0.01,0.03 -0.02,0.03 -0.02,0.03 -0.02,0.03 -0.02,0.02 -0.02,0.03 -0.02,0.02 -0.02,0.02 -0.02,0.03 -0.03,0.02 -0.02,0.02 -0.02,0.02 -0.03,0.01 -0.02,0.02 -0.03,0.02 -0.03,0.01 -0.02,0.02 -0.03,0.01 -0.03,0.01 -0.03,0.02 c -0.47,0.21 -0.87,0.2 -1.03,0.2 -1.3,0 -2.9,-0.98 -2.9,-2.14 0,-0.78 0.76,-1.18 1.31,-1.43 0.71,-0.32 1.65,-0.78 1.65,-1.62 0,-0.62 -0.45,-1.51 -2.01,-1.51 -1.04,0 -1.83,0.69 -1.83,1.34 0,0.27 0.25,0.72 0.69,0.92 l -0.12,0.17 c -0.34,0 -1.42,-0.53 -1.42,-1.52 0,-0.72 0.81,-1.46 2.03,-1.46 1.62,0 3.5,1.12 3.5,2.48 0,0.69 -0.48,1.17 -1.58,1.67 -0.54,0.24 -1.38,0.61 -1.38,1.39 0,0.32 0.17,0.67 0.38,0.86 0.35,0.3 0.97,0.3 1.02,0.3 0.1,0 0.55,-0.02 0.95,-0.2 0.2,-0.09 0.45,-0.21 0.45,-0.64 0,-0.14 0.04,-0.47 0.04,-0.47 z"
         id="path8511" /><path
         style="fill:#000000;stroke-width:0"
         inkscape:connector-curvature="0"
         d="m 275.64,474.78 -0.08,0.13 -0.09,0.13 -0.08,0.14 -0.08,0.14 -0.07,0.14 -0.07,0.15 -0.14,0.29 -0.13,0.31 -0.11,0.31 -0.11,0.32 -0.09,0.32 -0.08,0.33 -0.07,0.33 -0.06,0.33 -0.05,0.33 -0.04,0.33 -0.03,0.32 -0.01,0.32 -0.01,0.31 c 0,1.67 0.46,3.51 1.4,4.88 -1.46,-1.16 -2.14,-3.01 -2.14,-4.88 0,-1.89 0.68,-3.78 2.14,-4.98 z"
         id="path8513" /><path
         style="fill:#000000;stroke-width:0"
         inkscape:connector-curvature="0"
         d="m 283.48,483.66 -0.01,0.03 0,0.03 0,0.04 -0.01,0.03 0,0.03 -0.01,0.03 -0.01,0.03 -0.01,0.02 -0.01,0.03 -0.01,0.03 -0.01,0.02 -0.02,0.02 -0.01,0.03 -0.02,0.02 -0.02,0.02 -0.01,0.02 -0.02,0.02 -0.02,0.02 -0.03,0.02 -0.02,0.01 -0.02,0.02 -0.03,0.01 -0.02,0.01 -0.03,0.01 -0.03,0.01 -0.03,0.01 -0.02,0.01 -0.03,0.01 -0.04,0 -0.03,0 -0.03,0.01 -0.03,0 c -0.67,0 -2.06,-0.81 -2.79,-1.33 -0.48,-0.34 -1.53,-1.1 -1.53,-1.71 0,-0.62 0.53,-1.92 1.04,-2.78 0.7,-1.17 1.15,-1.43 1.56,-1.43 1.29,0 2,0.83 2.25,1.49 0,0 -0.08,0.12 -0.12,0.09 -0.46,-0.41 -0.59,-1.15 -1.78,-1.15 -0.91,0 -2.35,3.1 -2.35,4.03 0,0.41 0.81,0.99 1.09,1.19 1.02,0.74 1.97,1.17 2.27,1.17 0.24,0 0.35,-0.23 0.35,-0.42 0,-0.07 -0.02,-0.13 -0.02,-0.16 z"
         id="path8515" /><path
         style="fill:#000000;stroke-width:0"
         inkscape:connector-curvature="0"
         d="m 278.98,484.1 0,0.01 0,0.01 0,0.01 0,0.01 0,0.01 0,0.01 0,0 0,0.01 0,0.01 0,0.01 0,0 0,0.01 -0.01,0.01 0,0 0,0.01 0,0 0,0.01 -0.01,0 0,0 0,0.01 -0.01,0 0,0 -0.01,0.01 0,0 -0.01,0 0,0 -0.01,0 0,0 0,0 -0.01,0 0,0 -0.01,0 0,0 0,0.01 -0.01,0 0,0 -0.01,0 0,0 -0.01,0 c -0.13,0 -1.44,-0.58 -1.44,-0.85 l 0.11,-0.06 c 0.22,0.18 0.23,0.21 0.58,0.24 -0.1,-2.11 -0.95,-4.62 -1.53,-6.15 -0.04,-0.12 -0.12,-0.34 -0.12,-0.36 0,0 0.07,-0.07 0.11,-0.07 l 0.68,0.38 c 0.1,0.1 1.72,4.43 1.72,6.71 z"
         id="path8517" /><path
         style="fill:#000000;stroke-width:0"
         inkscape:connector-curvature="0"
         d="m 287.79,475.83 -0.08,0.14 c -0.12,-0.09 -0.51,-0.35 -0.62,-0.35 -0.1,0 -0.05,0.25 -0.03,0.31 0.17,0.75 0.37,1.47 0.5,2.22 0.09,0.47 -0.07,0.56 -0.21,0.56 -0.2,0 -0.51,-0.17 -0.82,-0.4 -0.44,-0.32 -0.91,-0.73 -1.22,-1.18 0.09,0.37 0.25,1.11 0.25,1.11 0.06,0.29 0.03,0.47 -0.13,0.47 -0.23,0 -0.97,-0.54 -1.18,-0.75 l 0.07,-0.15 c 0.09,0.09 0.49,0.37 0.58,0.37 0.17,0 0,-0.75 -0.21,-1.68 -0.1,-0.48 -0.21,-0.92 -0.32,-1.35 l 0.59,0.13 c 0.14,0.65 0.28,1.35 0.47,1.68 0.33,0.53 1.06,1.25 1.42,1.25 0.25,0 0.09,-0.53 0.06,-0.66 l -0.46,-1.99 c -0.07,-0.29 0.01,-0.44 0.17,-0.44 0.15,0 0.61,0.25 1.17,0.71 z"
         id="path8519" /><path
         style="fill:#000000;stroke-width:0"
         inkscape:connector-curvature="0"
         d="m 291.21,479.75 -0.01,0.35 -0.01,0.18 -0.01,0.17 -0.02,0.18 -0.02,0.17 -0.03,0.17 -0.03,0.17 -0.03,0.17 -0.04,0.17 -0.04,0.17 -0.05,0.16 -0.05,0.17 -0.05,0.16 -0.06,0.16 -0.07,0.16 -0.07,0.16 -0.07,0.15 -0.07,0.15 -0.09,0.15 -0.08,0.15 -0.09,0.14 -0.1,0.14 -0.1,0.14 -0.1,0.14 -0.11,0.13 -0.11,0.13 -0.12,0.13 -0.12,0.12 -0.12,0.12 -0.14,0.11 -0.13,0.12 c 1.01,-1.37 1.4,-3.29 1.4,-4.88 0,-1.61 -0.39,-3.48 -1.4,-4.98 1.47,1.21 2.14,3.07 2.14,4.97 z"
         id="path8521" /></g>    <g
       ns0:preamble="/home/gisbert/Dokumente/promotion/2016_07_06_talk/inkscape_preamble.tex"
       ns0:text="$\\cD_n\\circ \\cE_n(\\rho^{\\otimes n}) \\in \\cS(\\cH_n)$"
       word-spacing="normal"
       letter-spacing="normal"
       font-size-adjust="none"
       font-stretch="normal"
       font-weight="normal"
       font-variant="normal"
       font-style="normal"
       stroke-miterlimit="10.433"
       xml:space="preserve"
       transform="matrix(1,0,0,-1,344.28571,578.57143)"
       id="g8715"
       style="font-style:normal;font-variant:normal;font-weight:normal;font-stretch:normal;letter-spacing:normal;word-spacing:normal;text-anchor:start;fill:none;fill-opacity:1;fill-rule:evenodd;stroke:#000000;stroke-linecap:butt;stroke-linejoin:miter;stroke-miterlimit:10.43299961;stroke-dasharray:none;stroke-dashoffset:0;stroke-opacity:1"><path
         id="path8717"
         d="m 231.06,481.73 0,0.08 0,0.09 -0.01,0.08 -0.01,0.08 -0.01,0.07 -0.01,0.08 -0.02,0.07 -0.01,0.08 -0.02,0.06 -0.03,0.07 -0.02,0.07 -0.03,0.06 -0.02,0.06 -0.03,0.06 -0.04,0.06 -0.03,0.06 -0.03,0.06 -0.04,0.05 -0.04,0.05 -0.04,0.05 -0.04,0.05 -0.04,0.04 -0.04,0.05 -0.05,0.04 -0.04,0.04 -0.05,0.04 -0.04,0.04 -0.05,0.04 -0.05,0.03 -0.05,0.04 -0.05,0.03 -0.05,0.03 c -0.84,0.5 -1.71,0.5 -2.63,0.5 -0.83,0 -1.55,0 -2.39,-0.41 -0.45,-0.22 -1.22,-0.7 -1.42,-1.5 0.01,0 0.13,-0.11 0.13,-0.11 0.69,0.94 1.05,1.4 2.42,1.47 -0.17,-2.11 -0.66,-3.92 -1.36,-5.73 -0.23,-0.08 -0.38,-0.15 -0.59,-0.28 l -0.02,-0.18 c 0,0 0.01,-0.07 0.21,-0.07 l 1.07,0 0.02,0.55 c 0.87,2.17 1.23,3.52 1.49,5.71 l 0.26,0 c 1.37,0 2.96,-0.51 2.96,-2.19 l 0,0 c 0,-1.98 -1.81,-3.52 -4.15,-3.52 l -0.56,0 -0.02,-0.55 c 2.24,0 5.57,1.74 5.57,4.5 z"
         inkscape:connector-curvature="0"
         style="fill:#000000;stroke-width:0" /><path
         id="path8719"
         d="m 235.08,475.83 -0.08,0.14 c -0.12,-0.09 -0.51,-0.35 -0.62,-0.35 -0.09,0 -0.05,0.25 -0.03,0.31 0.17,0.75 0.37,1.47 0.5,2.22 0.09,0.47 -0.07,0.56 -0.21,0.56 -0.2,0 -0.51,-0.17 -0.82,-0.4 -0.44,-0.32 -0.91,-0.73 -1.22,-1.18 0.09,0.37 0.25,1.11 0.25,1.11 0.06,0.29 0.03,0.47 -0.13,0.47 -0.23,0 -0.97,-0.54 -1.18,-0.75 l 0.07,-0.15 c 0.09,0.09 0.49,0.37 0.59,0.37 0.16,0 0,-0.75 -0.22,-1.68 -0.1,-0.48 -0.21,-0.92 -0.32,-1.35 l 0.59,0.13 c 0.13,0.65 0.28,1.35 0.48,1.68 0.32,0.53 1.05,1.25 1.41,1.25 0.25,0 0.09,-0.53 0.06,-0.66 l -0.46,-1.99 c -0.07,-0.29 0.01,-0.44 0.17,-0.44 0.16,0 0.61,0.25 1.17,0.71 z"
         inkscape:connector-curvature="0"
         style="fill:#000000;stroke-width:0" /><path
         id="path8721"
         d="m 242.14,479.47 0,0.1 -0.01,0.1 -0.01,0.1 -0.02,0.1 -0.02,0.09 -0.03,0.09 -0.03,0.09 -0.03,0.09 -0.04,0.09 -0.04,0.08 -0.05,0.08 -0.05,0.08 -0.06,0.08 -0.05,0.07 -0.06,0.07 -0.07,0.07 -0.07,0.06 -0.07,0.06 -0.07,0.06 -0.08,0.06 -0.08,0.05 -0.08,0.04 -0.08,0.05 -0.09,0.03 -0.09,0.04 -0.09,0.03 -0.09,0.03 -0.1,0.02 -0.09,0.01 -0.1,0.02 -0.1,0 -0.1,0.01 0,-0.5 c 0.79,0 1.44,-0.65 1.44,-1.45 l 0,0 c 0,-0.81 -0.65,-1.45 -1.44,-1.45 -0.82,0 -1.46,0.64 -1.46,1.45 0,0.8 0.64,1.45 1.46,1.45 l 0,0.5 c -1.1,0 -1.96,-0.87 -1.96,-1.95 0,-1.09 0.86,-1.95 1.96,-1.95 1.08,0 1.95,0.86 1.95,1.95 z"
         inkscape:connector-curvature="0"
         style="fill:#000000;stroke-width:0" /><path
         id="path8723"
         d="m 250.08,483.58 0,0.03 0,0.02 0,0.03 0,0.02 -0.01,0.03 0,0.02 -0.01,0.02 -0.01,0.03 0,0.02 -0.01,0.02 -0.01,0.02 -0.01,0.02 -0.02,0.04 -0.03,0.03 -0.03,0.04 -0.03,0.03 -0.03,0.02 -0.03,0.03 -0.04,0.03 -0.04,0.02 -0.04,0.02 -0.04,0.02 -0.05,0.01 -0.04,0.02 -0.05,0.01 -0.04,0.02 -0.05,0.01 -0.05,0.01 -0.04,0.01 -0.05,0 -0.05,0.01 -0.05,0 -0.04,0.01 -0.05,0 -0.05,0 -0.04,0 -0.05,0.01 -0.04,0 c -1.35,0 -3.05,-1.07 -3.05,-2.3 0,-0.54 0.37,-0.91 0.94,-1.11 -1.96,-1.03 -2.11,-2.33 -2.11,-2.6 0,-0.77 0.75,-1.24 1.69,-1.24 1.66,0 3,1.57 3,1.79 l -0.1,0.07 c -0.76,-0.61 -1.4,-1.31 -2.25,-1.31 -0.74,0 -1.49,0.4 -1.49,1.12 0,0.47 0.55,1.96 2.13,2.02 0.2,0.01 0.57,0.07 0.71,0.15 l 0.01,0.3 c -1.56,0.08 -1.68,0.98 -1.68,1.24 0,0.23 0.15,1.32 1.54,1.32 0.19,0 0.95,-0.03 0.95,-0.55 0,-0.23 -0.17,-0.38 -0.17,-0.47 l 0.12,-0.1 c 0.29,0 0.89,0.41 0.89,0.99 z"
         inkscape:connector-curvature="0"
         style="fill:#000000;stroke-width:0" /><path
         id="path8725"
         d="m 253.81,475.83 -0.09,0.14 c -0.12,-0.09 -0.5,-0.35 -0.61,-0.35 -0.1,0 -0.05,0.25 -0.04,0.31 0.18,0.75 0.37,1.47 0.51,2.22 0.08,0.47 -0.07,0.56 -0.21,0.56 -0.2,0 -0.51,-0.17 -0.82,-0.4 -0.45,-0.32 -0.91,-0.73 -1.23,-1.18 0.09,0.37 0.25,1.11 0.25,1.11 0.07,0.29 0.03,0.47 -0.12,0.47 -0.23,0 -0.97,-0.54 -1.18,-0.75 l 0.07,-0.15 c 0.08,0.09 0.49,0.37 0.58,0.37 0.17,0 0,-0.75 -0.21,-1.68 -0.11,-0.48 -0.21,-0.92 -0.33,-1.35 l 0.6,0.13 c 0.13,0.65 0.28,1.35 0.47,1.68 0.33,0.53 1.06,1.25 1.42,1.25 0.25,0 0.09,-0.53 0.06,-0.66 l -0.46,-1.99 c -0.07,-0.29 0.01,-0.44 0.17,-0.44 0.15,0 0.61,0.25 1.17,0.71 z"
         inkscape:connector-curvature="0"
         style="fill:#000000;stroke-width:0" /><path
         id="path8727"
         d="m 257.52,474.78 -0.09,0.13 -0.08,0.13 -0.08,0.14 -0.08,0.14 -0.08,0.14 -0.07,0.15 -0.14,0.29 -0.12,0.31 -0.12,0.31 -0.1,0.32 -0.1,0.32 -0.08,0.33 -0.07,0.33 -0.06,0.33 -0.05,0.33 -0.04,0.33 -0.03,0.32 -0.01,0.32 -0.01,0.31 c 0,1.67 0.46,3.51 1.41,4.88 -1.47,-1.16 -2.14,-3.01 -2.14,-4.88 0,-1.89 0.67,-3.78 2.14,-4.98 z"
         inkscape:connector-curvature="0"
         style="fill:#000000;stroke-width:0" /><path
         id="path8729"
         d="m 263.19,480.4 -0.01,0.09 0,0.08 -0.01,0.08 -0.01,0.08 -0.01,0.07 -0.02,0.08 -0.02,0.07 -0.02,0.06 -0.03,0.07 -0.03,0.06 -0.03,0.07 -0.04,0.05 -0.03,0.06 -0.05,0.05 -0.04,0.05 -0.05,0.05 -0.04,0.05 -0.06,0.04 -0.05,0.04 -0.06,0.04 -0.06,0.03 -0.06,0.03 -0.06,0.03 -0.07,0.03 -0.07,0.02 -0.07,0.02 -0.08,0.02 -0.08,0.01 -0.08,0.01 -0.08,0.01 -0.08,0 -0.09,0.01 c -1.17,0 -2.45,-0.87 -2.77,-2.02 -0.49,-1.76 -0.42,-3.71 -0.15,-5.48 l 0.83,0.27 c -0.23,1.18 -0.33,1.92 -0.19,2.88 0.25,-0.33 0.61,-0.43 1.01,-0.43 l 0.12,0.26 c -0.76,0 -0.94,0.59 -0.94,1.24 0,1.02 0.38,2.96 1.71,2.96 0.77,0 0.99,-0.59 0.99,-1.27 l 0,0 c 0,-1.06 -0.42,-2.93 -1.76,-2.93 l -0.12,-0.26 c 1.72,0 2.76,1.79 2.76,3.32 z"
         inkscape:connector-curvature="0"
         style="fill:#000000;stroke-width:0" /><path
         id="path8731"
         d="m 268.67,482.76 -0.01,0.12 -0.01,0.12 -0.01,0.12 -0.02,0.12 -0.03,0.11 -0.03,0.12 -0.04,0.11 -0.04,0.1 -0.05,0.11 -0.05,0.1 -0.06,0.1 -0.07,0.1 -0.06,0.1 -0.07,0.09 -0.08,0.08 -0.08,0.09 -0.08,0.08 -0.09,0.07 -0.09,0.07 -0.09,0.07 -0.1,0.06 -0.1,0.06 -0.11,0.05 -0.1,0.05 -0.11,0.04 -0.11,0.04 -0.12,0.03 -0.11,0.03 -0.12,0.02 -0.12,0.02 -0.12,0 -0.12,0.01 0,-0.36 c 0.49,0 0.94,-0.17 1.3,-0.47 l 0,0 -1.3,-1.31 0.25,-0.25 1.31,1.31 c 0.29,-0.35 0.47,-0.82 0.47,-1.31 l 0,0 c 0,-0.5 -0.18,-0.97 -0.47,-1.31 l -1.31,1.31 -0.25,0.25 -1.31,1.31 c 0.34,0.3 0.81,0.47 1.31,0.47 l 0,0.36 c -1.33,0 -2.4,-1.08 -2.4,-2.39 l 0.35,0 c 0,0.49 0.18,0.96 0.48,1.31 l 1.31,-1.31 -1.31,-1.31 c -0.3,0.34 -0.48,0.81 -0.48,1.31 l -0.35,0 c 0,-1.33 1.07,-2.4 2.4,-2.4 l 0,0.35 c -0.5,0 -0.97,0.18 -1.31,0.48 l 1.31,1.31 1.3,-1.31 c -0.36,-0.3 -0.81,-0.48 -1.3,-0.48 l 0,-0.35 c 1.31,0 2.4,1.07 2.4,2.4 z"
         inkscape:connector-curvature="0"
         style="fill:#000000;stroke-width:0" /><path
         id="path8733"
         d="m 272.77,481.49 -0.09,0.15 c -0.12,-0.1 -0.5,-0.35 -0.61,-0.35 -0.1,0 -0.05,0.25 -0.04,0.31 0.18,0.74 0.37,1.47 0.51,2.22 0.08,0.47 -0.08,0.55 -0.21,0.55 -0.2,0 -0.51,-0.17 -0.82,-0.39 -0.45,-0.33 -0.91,-0.74 -1.23,-1.19 0.1,0.37 0.25,1.12 0.25,1.12 0.07,0.28 0.03,0.46 -0.13,0.46 -0.22,0 -0.96,-0.54 -1.17,-0.74 l 0.07,-0.15 c 0.08,0.08 0.49,0.36 0.58,0.36 0.17,0 0,-0.74 -0.21,-1.67 -0.1,-0.49 -0.21,-0.93 -0.32,-1.35 l 0.59,0.13 c 0.13,0.65 0.28,1.34 0.47,1.68 0.33,0.53 1.05,1.25 1.42,1.25 0.25,0 0.09,-0.54 0.06,-0.66 l -0.46,-2 c -0.07,-0.29 0,-0.44 0.17,-0.44 0.15,0 0.61,0.25 1.17,0.71 z"
         inkscape:connector-curvature="0"
         style="fill:#000000;stroke-width:0" /><path
         id="path8735"
         d="m 276.19,479.75 -0.01,0.35 -0.01,0.18 -0.01,0.17 -0.02,0.18 -0.02,0.17 -0.03,0.17 -0.03,0.17 -0.03,0.17 -0.04,0.17 -0.04,0.17 -0.05,0.16 -0.05,0.17 -0.06,0.16 -0.06,0.16 -0.06,0.16 -0.07,0.16 -0.07,0.15 -0.08,0.15 -0.08,0.15 -0.08,0.15 -0.09,0.14 -0.1,0.14 -0.1,0.14 -0.1,0.14 -0.11,0.13 -0.11,0.13 -0.12,0.13 -0.12,0.12 -0.13,0.12 -0.13,0.11 -0.13,0.12 c 1,-1.37 1.4,-3.29 1.4,-4.88 0,-1.61 -0.39,-3.48 -1.4,-4.98 1.47,1.21 2.14,3.07 2.14,4.97 z"
         inkscape:connector-curvature="0"
         style="fill:#000000;stroke-width:0" /><path
         id="path8737"
         d="m 284.07,477.11 0,0.5 -1.92,0 c -0.95,0 -1.9,0.79 -2.03,1.86 l 3.95,0 0,0.51 -3.95,0 c 0.12,1.03 0.96,1.87 2.03,1.87 l 1.92,0 0,0.49 -1.87,0 c -1.47,0 -2.59,-1.21 -2.59,-2.61 0,-1.39 1.12,-2.62 2.59,-2.62 z"
         inkscape:connector-curvature="0"
         style="fill:#000000;stroke-width:0" /><path
         id="path8739"
         d="m 293.29,483.19 0,0.05 0,0.04 0,0.04 -0.01,0.04 -0.01,0.04 0,0.04 -0.01,0.04 -0.01,0.03 -0.01,0.04 -0.02,0.03 -0.01,0.03 -0.01,0.03 -0.02,0.03 -0.02,0.03 -0.02,0.03 -0.01,0.03 -0.02,0.02 -0.02,0.03 -0.02,0.02 -0.03,0.02 -0.02,0.03 -0.02,0.02 -0.03,0.02 -0.02,0.02 -0.03,0.01 -0.02,0.02 -0.03,0.02 -0.02,0.01 -0.03,0.02 -0.03,0.01 -0.03,0.01 -0.02,0.02 c -0.47,0.21 -0.88,0.2 -1.04,0.2 -1.3,0 -2.9,-0.98 -2.9,-2.14 0,-0.78 0.76,-1.18 1.31,-1.43 0.71,-0.32 1.65,-0.78 1.65,-1.62 0,-0.62 -0.45,-1.51 -2,-1.51 -1.05,0 -1.84,0.69 -1.84,1.34 0,0.27 0.25,0.72 0.69,0.92 l -0.12,0.17 c -0.34,0 -1.41,-0.53 -1.41,-1.52 0,-0.72 0.8,-1.46 2.02,-1.46 1.62,0 3.51,1.12 3.51,2.48 0,0.69 -0.49,1.17 -1.59,1.67 -0.54,0.24 -1.37,0.61 -1.37,1.39 0,0.32 0.17,0.67 0.38,0.86 0.34,0.3 0.96,0.3 1.01,0.3 0.1,0 0.55,-0.02 0.95,-0.2 0.2,-0.09 0.46,-0.21 0.46,-0.64 0,-0.14 0.04,-0.47 0.04,-0.47 z"
         inkscape:connector-curvature="0"
         style="fill:#000000;stroke-width:0" /><path
         id="path8741"
         d="m 296.66,474.78 -0.09,0.13 -0.08,0.13 -0.08,0.14 -0.08,0.14 -0.08,0.14 -0.07,0.15 -0.14,0.29 -0.12,0.31 -0.12,0.31 -0.1,0.32 -0.09,0.32 -0.09,0.33 -0.07,0.33 -0.06,0.33 -0.05,0.33 -0.04,0.33 -0.02,0.32 -0.02,0.32 0,0.31 c 0,1.67 0.45,3.51 1.4,4.88 -1.46,-1.16 -2.14,-3.01 -2.14,-4.88 0,-1.89 0.68,-3.78 2.14,-4.98 z"
         inkscape:connector-curvature="0"
         style="fill:#000000;stroke-width:0" /><path
         id="path8743"
         d="m 305.34,483.96 -0.11,0.08 c 0.01,0 -0.58,-0.27 -0.58,-0.27 -0.24,-0.19 -0.9,-1.73 -1.19,-2.52 l -2.65,0 c -0.08,0 -0.29,0 -0.44,-0.1 0.12,0.48 0.21,0.9 0.27,1.22 0.08,0.5 0.12,1.02 0.12,1.1 0,0.28 -0.15,0.57 -0.66,0.57 -1.1,0 -2.3,-0.56 -2.51,-1.71 0.01,0 0.2,-0.13 0.2,-0.13 0.5,0.79 0.7,1.29 1.65,1.29 0.42,0 0.48,-0.33 0.48,-0.44 0,-0.57 -0.33,-2.68 -1.49,-5.67 -0.1,-0.27 -0.1,-0.29 -0.1,-0.3 0,0 0.07,-0.07 0.11,-0.07 0.22,0 0.66,0.27 0.73,0.44 0.13,0.29 0.57,1.55 0.71,2 l 0.38,1.25 2.6,0 c 0.08,0 0.28,0 0.44,0.1 -0.51,-1.54 -0.58,-2.34 -0.58,-2.97 0,-0.55 0,-1.07 0.64,-1.07 0.8,0 1.81,0.7 1.81,1.13 l -0.2,0.18 c -0.23,-0.48 -0.68,-0.76 -0.95,-0.76 -0.46,0 -0.46,0.5 -0.46,0.95 0,1.97 1.2,4.58 1.71,5.56 0.07,0.1 0.07,0.12 0.07,0.14 z"
         inkscape:connector-curvature="0"
         style="fill:#000000;stroke-width:0" /><path
         id="path8745"
         d="m 309.6,475.83 -0.08,0.14 c -0.12,-0.09 -0.51,-0.35 -0.62,-0.35 -0.1,0 -0.05,0.25 -0.03,0.31 0.17,0.75 0.37,1.47 0.5,2.22 0.09,0.47 -0.07,0.56 -0.21,0.56 -0.2,0 -0.51,-0.17 -0.82,-0.4 -0.44,-0.32 -0.91,-0.73 -1.22,-1.18 0.09,0.37 0.25,1.11 0.25,1.11 0.06,0.29 0.03,0.47 -0.13,0.47 -0.23,0 -0.97,-0.54 -1.18,-0.75 l 0.07,-0.15 c 0.09,0.09 0.49,0.37 0.58,0.37 0.17,0 0,-0.75 -0.21,-1.68 -0.1,-0.48 -0.21,-0.92 -0.32,-1.35 l 0.59,0.13 c 0.13,0.65 0.28,1.35 0.47,1.68 0.33,0.53 1.06,1.25 1.42,1.25 0.25,0 0.09,-0.53 0.06,-0.66 l -0.46,-1.99 c -0.07,-0.29 0.01,-0.44 0.17,-0.44 0.15,0 0.61,0.25 1.17,0.71 z"
         inkscape:connector-curvature="0"
         style="fill:#000000;stroke-width:0" /><path
         id="path8747"
         d="m 313.01,479.75 0,0.35 -0.01,0.18 -0.02,0.17 -0.02,0.18 -0.02,0.17 -0.02,0.17 -0.03,0.17 -0.04,0.17 -0.04,0.17 -0.04,0.17 -0.05,0.16 -0.05,0.17 -0.05,0.16 -0.06,0.16 -0.07,0.16 -0.06,0.16 -0.08,0.15 -0.07,0.15 -0.08,0.15 -0.09,0.15 -0.09,0.14 -0.09,0.14 -0.1,0.14 -0.11,0.14 -0.1,0.13 -0.12,0.13 -0.11,0.13 -0.13,0.12 -0.12,0.12 -0.13,0.11 -0.14,0.12 c 1.01,-1.37 1.41,-3.29 1.41,-4.88 0,-1.61 -0.39,-3.48 -1.41,-4.98 1.48,1.21 2.14,3.07 2.14,4.97 z"
         inkscape:connector-curvature="0"
         style="fill:#000000;stroke-width:0" /></g>  </g>
</svg>
